G04 #@! TF.GenerationSoftware,KiCad,Pcbnew,(5.0.2)-1*
G04 #@! TF.CreationDate,2019-01-19T19:24:23-05:00*
G04 #@! TF.ProjectId,Keithley_177_power_repair,4b656974-686c-4657-995f-3137375f706f,rev?*
G04 #@! TF.SameCoordinates,Original*
G04 #@! TF.FileFunction,Legend,Top*
G04 #@! TF.FilePolarity,Positive*
%FSLAX46Y46*%
G04 Gerber Fmt 4.6, Leading zero omitted, Abs format (unit mm)*
G04 Created by KiCad (PCBNEW (5.0.2)-1) date 1/19/2019 7:24:23 PM*
%MOMM*%
%LPD*%
G01*
G04 APERTURE LIST*
%ADD10C,0.300000*%
%ADD11C,0.200000*%
%ADD12C,0.120000*%
%ADD13C,0.010000*%
%ADD14C,0.150000*%
G04 APERTURE END LIST*
D10*
X31285714Y-87678571D02*
X31285714Y-88750000D01*
X31214285Y-88964285D01*
X31071428Y-89107142D01*
X30857142Y-89178571D01*
X30714285Y-89178571D01*
X32642857Y-89178571D02*
X32642857Y-88392857D01*
X32571428Y-88250000D01*
X32428571Y-88178571D01*
X32142857Y-88178571D01*
X32000000Y-88250000D01*
X32642857Y-89107142D02*
X32500000Y-89178571D01*
X32142857Y-89178571D01*
X32000000Y-89107142D01*
X31928571Y-88964285D01*
X31928571Y-88821428D01*
X32000000Y-88678571D01*
X32142857Y-88607142D01*
X32500000Y-88607142D01*
X32642857Y-88535714D01*
X33357142Y-88178571D02*
X33357142Y-89178571D01*
X33357142Y-88321428D02*
X33428571Y-88250000D01*
X33571428Y-88178571D01*
X33785714Y-88178571D01*
X33928571Y-88250000D01*
X34000000Y-88392857D01*
X34000000Y-89178571D01*
X35357142Y-88178571D02*
X35357142Y-89178571D01*
X34714285Y-88178571D02*
X34714285Y-88964285D01*
X34785714Y-89107142D01*
X34928571Y-89178571D01*
X35142857Y-89178571D01*
X35285714Y-89107142D01*
X35357142Y-89035714D01*
X36714285Y-89178571D02*
X36714285Y-88392857D01*
X36642857Y-88250000D01*
X36500000Y-88178571D01*
X36214285Y-88178571D01*
X36071428Y-88250000D01*
X36714285Y-89107142D02*
X36571428Y-89178571D01*
X36214285Y-89178571D01*
X36071428Y-89107142D01*
X36000000Y-88964285D01*
X36000000Y-88821428D01*
X36071428Y-88678571D01*
X36214285Y-88607142D01*
X36571428Y-88607142D01*
X36714285Y-88535714D01*
X37428571Y-89178571D02*
X37428571Y-88178571D01*
X37428571Y-88464285D02*
X37500000Y-88321428D01*
X37571428Y-88250000D01*
X37714285Y-88178571D01*
X37857142Y-88178571D01*
X38214285Y-88178571D02*
X38571428Y-89178571D01*
X38928571Y-88178571D02*
X38571428Y-89178571D01*
X38428571Y-89535714D01*
X38357142Y-89607142D01*
X38214285Y-89678571D01*
X40571428Y-87821428D02*
X40642857Y-87750000D01*
X40785714Y-87678571D01*
X41142857Y-87678571D01*
X41285714Y-87750000D01*
X41357142Y-87821428D01*
X41428571Y-87964285D01*
X41428571Y-88107142D01*
X41357142Y-88321428D01*
X40500000Y-89178571D01*
X41428571Y-89178571D01*
X42357142Y-87678571D02*
X42500000Y-87678571D01*
X42642857Y-87750000D01*
X42714285Y-87821428D01*
X42785714Y-87964285D01*
X42857142Y-88250000D01*
X42857142Y-88607142D01*
X42785714Y-88892857D01*
X42714285Y-89035714D01*
X42642857Y-89107142D01*
X42500000Y-89178571D01*
X42357142Y-89178571D01*
X42214285Y-89107142D01*
X42142857Y-89035714D01*
X42071428Y-88892857D01*
X42000000Y-88607142D01*
X42000000Y-88250000D01*
X42071428Y-87964285D01*
X42142857Y-87821428D01*
X42214285Y-87750000D01*
X42357142Y-87678571D01*
X44285714Y-89178571D02*
X43428571Y-89178571D01*
X43857142Y-89178571D02*
X43857142Y-87678571D01*
X43714285Y-87892857D01*
X43571428Y-88035714D01*
X43428571Y-88107142D01*
X45000000Y-89178571D02*
X45285714Y-89178571D01*
X45428571Y-89107142D01*
X45500000Y-89035714D01*
X45642857Y-88821428D01*
X45714285Y-88535714D01*
X45714285Y-87964285D01*
X45642857Y-87821428D01*
X45571428Y-87750000D01*
X45428571Y-87678571D01*
X45142857Y-87678571D01*
X45000000Y-87750000D01*
X44928571Y-87821428D01*
X44857142Y-87964285D01*
X44857142Y-88321428D01*
X44928571Y-88464285D01*
X45000000Y-88535714D01*
X45142857Y-88607142D01*
X45428571Y-88607142D01*
X45571428Y-88535714D01*
X45642857Y-88464285D01*
X45714285Y-88321428D01*
X33285714Y-73678571D02*
X32571428Y-73678571D01*
X32571428Y-72178571D01*
X33785714Y-73678571D02*
X33785714Y-72678571D01*
X33785714Y-72178571D02*
X33714285Y-72250000D01*
X33785714Y-72321428D01*
X33857142Y-72250000D01*
X33785714Y-72178571D01*
X33785714Y-72321428D01*
X34500000Y-72678571D02*
X34500000Y-73678571D01*
X34500000Y-72821428D02*
X34571428Y-72750000D01*
X34714285Y-72678571D01*
X34928571Y-72678571D01*
X35071428Y-72750000D01*
X35142857Y-72892857D01*
X35142857Y-73678571D01*
X36428571Y-73607142D02*
X36285714Y-73678571D01*
X36000000Y-73678571D01*
X35857142Y-73607142D01*
X35785714Y-73464285D01*
X35785714Y-72892857D01*
X35857142Y-72750000D01*
X36000000Y-72678571D01*
X36285714Y-72678571D01*
X36428571Y-72750000D01*
X36500000Y-72892857D01*
X36500000Y-73035714D01*
X35785714Y-73178571D01*
X31285714Y-52178571D02*
X31285714Y-50678571D01*
X32142857Y-52178571D01*
X32142857Y-50678571D01*
X33428571Y-52107142D02*
X33285714Y-52178571D01*
X33000000Y-52178571D01*
X32857142Y-52107142D01*
X32785714Y-51964285D01*
X32785714Y-51392857D01*
X32857142Y-51250000D01*
X33000000Y-51178571D01*
X33285714Y-51178571D01*
X33428571Y-51250000D01*
X33500000Y-51392857D01*
X33500000Y-51535714D01*
X32785714Y-51678571D01*
X34785714Y-51178571D02*
X34785714Y-52178571D01*
X34142857Y-51178571D02*
X34142857Y-51964285D01*
X34214285Y-52107142D01*
X34357142Y-52178571D01*
X34571428Y-52178571D01*
X34714285Y-52107142D01*
X34785714Y-52035714D01*
X35285714Y-51178571D02*
X35857142Y-51178571D01*
X35500000Y-50678571D02*
X35500000Y-51964285D01*
X35571428Y-52107142D01*
X35714285Y-52178571D01*
X35857142Y-52178571D01*
X36357142Y-52178571D02*
X36357142Y-51178571D01*
X36357142Y-51464285D02*
X36428571Y-51321428D01*
X36500000Y-51250000D01*
X36642857Y-51178571D01*
X36785714Y-51178571D01*
X37928571Y-52178571D02*
X37928571Y-51392857D01*
X37857142Y-51250000D01*
X37714285Y-51178571D01*
X37428571Y-51178571D01*
X37285714Y-51250000D01*
X37928571Y-52107142D02*
X37785714Y-52178571D01*
X37428571Y-52178571D01*
X37285714Y-52107142D01*
X37214285Y-51964285D01*
X37214285Y-51821428D01*
X37285714Y-51678571D01*
X37428571Y-51607142D01*
X37785714Y-51607142D01*
X37928571Y-51535714D01*
X38857142Y-52178571D02*
X38714285Y-52107142D01*
X38642857Y-51964285D01*
X38642857Y-50678571D01*
D11*
X49500000Y-44000000D02*
X49500000Y-90000000D01*
X50000000Y-44000000D02*
X50000000Y-90000000D01*
D12*
G04 #@! TO.C,TP1*
X57700000Y-86500000D02*
G75*
G03X57700000Y-86500000I-1200000J0D01*
G01*
G04 #@! TO.C,TP3*
X68700000Y-86500000D02*
G75*
G03X68700000Y-86500000I-1200000J0D01*
G01*
G04 #@! TO.C,TP2*
X86950000Y-68300000D02*
G75*
G03X86950000Y-68300000I-1200000J0D01*
G01*
G04 #@! TO.C,U1*
X82371000Y-88560000D02*
X70650000Y-88560000D01*
X82371000Y-79940000D02*
X70650000Y-79940000D01*
X82371000Y-88560000D02*
X82371000Y-79940000D01*
X70650000Y-88560000D02*
X70650000Y-79940000D01*
X82611000Y-80940000D02*
X82611000Y-79700000D01*
X82611000Y-79700000D02*
X81371000Y-79700000D01*
D13*
G04 #@! TO.C,G\002A\002A\002A*
G36*
X46305224Y-75114674D02*
X46406135Y-75179667D01*
X46517161Y-75278049D01*
X46629243Y-75401711D01*
X46733320Y-75542545D01*
X46741155Y-75554505D01*
X46869737Y-75788886D01*
X46958034Y-76038062D01*
X47009698Y-76314494D01*
X47025839Y-76526178D01*
X47022978Y-76809376D01*
X46989807Y-77087055D01*
X46923730Y-77369378D01*
X46822151Y-77666509D01*
X46682474Y-77988614D01*
X46618901Y-78119608D01*
X46461335Y-78417405D01*
X46296911Y-78687355D01*
X46115512Y-78943650D01*
X45907017Y-79200482D01*
X45661309Y-79472045D01*
X45634299Y-79500561D01*
X45498210Y-79650186D01*
X45388704Y-79788169D01*
X45292653Y-79933389D01*
X45196930Y-80104728D01*
X45148489Y-80199316D01*
X45090710Y-80308672D01*
X45037148Y-80400012D01*
X44995896Y-80459960D01*
X44982260Y-80474097D01*
X44963643Y-80499272D01*
X44948779Y-80549524D01*
X44936527Y-80632740D01*
X44925746Y-80756803D01*
X44915297Y-80929598D01*
X44914680Y-80941235D01*
X44902681Y-81107883D01*
X44882897Y-81313591D01*
X44857273Y-81541178D01*
X44827751Y-81773460D01*
X44796275Y-81993254D01*
X44794038Y-82007802D01*
X44763118Y-82209858D01*
X44733038Y-82410167D01*
X44705687Y-82595874D01*
X44682953Y-82754123D01*
X44666725Y-82872059D01*
X44663902Y-82893761D01*
X44632251Y-83093753D01*
X44586735Y-83316680D01*
X44531053Y-83548827D01*
X44468902Y-83776481D01*
X44403978Y-83985929D01*
X44339978Y-84163456D01*
X44292056Y-84273023D01*
X44218651Y-84409677D01*
X44147319Y-84511441D01*
X44063210Y-84597936D01*
X44015408Y-84638597D01*
X43923923Y-84710052D01*
X43839139Y-84771077D01*
X43779988Y-84808127D01*
X43674439Y-84847573D01*
X43562643Y-84866136D01*
X43469023Y-84860420D01*
X43449522Y-84854062D01*
X43395723Y-84817014D01*
X43317422Y-84745332D01*
X43224588Y-84649876D01*
X43127190Y-84541505D01*
X43035196Y-84431078D01*
X42958577Y-84329456D01*
X42932972Y-84291376D01*
X42887734Y-84213751D01*
X42825119Y-84096779D01*
X42751577Y-83952985D01*
X42673555Y-83794891D01*
X42623030Y-83689417D01*
X42473224Y-83348036D01*
X42359871Y-83030454D01*
X42278425Y-82720753D01*
X42224341Y-82403017D01*
X42205231Y-82226067D01*
X42195581Y-82073697D01*
X42189959Y-81888727D01*
X42188164Y-81684355D01*
X42189993Y-81473778D01*
X42195245Y-81270194D01*
X42201444Y-81136002D01*
X42728523Y-81136002D01*
X42728585Y-81374733D01*
X42731757Y-81583932D01*
X42736435Y-81799132D01*
X42741581Y-81968172D01*
X42748297Y-82101969D01*
X42757684Y-82211438D01*
X42770840Y-82307495D01*
X42788868Y-82401056D01*
X42812867Y-82503036D01*
X42832001Y-82578276D01*
X42884518Y-82750852D01*
X42960089Y-82957725D01*
X43052285Y-83184317D01*
X43154680Y-83416049D01*
X43260844Y-83638343D01*
X43364352Y-83836621D01*
X43453782Y-83988545D01*
X43525240Y-84091812D01*
X43603742Y-84191915D01*
X43680596Y-84279321D01*
X43747109Y-84344500D01*
X43794589Y-84377918D01*
X43809886Y-84379051D01*
X43828849Y-84346367D01*
X43858005Y-84272452D01*
X43892127Y-84171032D01*
X43904842Y-84129690D01*
X43980200Y-83860453D01*
X44044769Y-83587798D01*
X44102174Y-83294674D01*
X44156040Y-82964031D01*
X44163880Y-82911230D01*
X44194129Y-82705027D01*
X44228809Y-82468232D01*
X44264132Y-82226736D01*
X44296308Y-82006431D01*
X44303818Y-81954943D01*
X44341557Y-81665110D01*
X44372367Y-81357823D01*
X44396600Y-81026279D01*
X44414611Y-80663674D01*
X44426753Y-80263204D01*
X44433378Y-79818066D01*
X44434944Y-79428674D01*
X44434944Y-78473907D01*
X44329556Y-78630493D01*
X44271778Y-78706181D01*
X44180391Y-78813566D01*
X44062847Y-78944694D01*
X43926595Y-79091611D01*
X43779086Y-79246363D01*
X43627770Y-79400995D01*
X43480097Y-79547555D01*
X43383529Y-79640472D01*
X43301093Y-79724056D01*
X43198406Y-79836164D01*
X43090295Y-79960291D01*
X43016156Y-80049395D01*
X42801210Y-80313917D01*
X42759958Y-80620722D01*
X42743925Y-80768709D01*
X42733542Y-80937231D01*
X42728523Y-81136002D01*
X42201444Y-81136002D01*
X42203717Y-81086803D01*
X42215207Y-80936801D01*
X42226288Y-80850570D01*
X42244389Y-80745073D01*
X41948374Y-80870273D01*
X41793407Y-80932382D01*
X41623426Y-80995063D01*
X41464971Y-81048727D01*
X41395506Y-81070013D01*
X41269004Y-81103180D01*
X41121977Y-81136200D01*
X40967238Y-81166836D01*
X40817597Y-81192849D01*
X40685866Y-81212002D01*
X40584857Y-81222057D01*
X40529634Y-81221265D01*
X40528077Y-81203240D01*
X40565307Y-81163406D01*
X40630993Y-81109028D01*
X40714802Y-81047374D01*
X40806404Y-80985709D01*
X40895467Y-80931299D01*
X40971660Y-80891411D01*
X41024290Y-80873359D01*
X41335080Y-80827288D01*
X41606541Y-80776774D01*
X41835067Y-80722777D01*
X42017054Y-80666257D01*
X42148898Y-80608175D01*
X42223002Y-80553975D01*
X42252014Y-80512949D01*
X42277105Y-80452150D01*
X42300933Y-80361872D01*
X42326157Y-80232404D01*
X42349368Y-80092575D01*
X42400153Y-79814494D01*
X42890960Y-79814494D01*
X43293626Y-79406110D01*
X43496840Y-79193862D01*
X43663334Y-79004583D01*
X43801727Y-78826567D01*
X43920638Y-78648107D01*
X44028687Y-78457498D01*
X44106638Y-78301910D01*
X44172831Y-78147363D01*
X44244050Y-77953017D01*
X44315125Y-77735233D01*
X44380886Y-77510375D01*
X44436164Y-77294802D01*
X44462183Y-77176553D01*
X44493316Y-77054943D01*
X44529751Y-76982130D01*
X44576621Y-76949835D01*
X44604943Y-76946292D01*
X44651896Y-76930642D01*
X44728016Y-76889614D01*
X44816761Y-76832134D01*
X44902477Y-76775038D01*
X44971967Y-76734100D01*
X45010488Y-76717987D01*
X45010912Y-76717977D01*
X45019797Y-76745214D01*
X45025277Y-76821940D01*
X45027529Y-76940679D01*
X45026726Y-77093953D01*
X45023044Y-77274285D01*
X45016658Y-77474198D01*
X45007743Y-77686215D01*
X44996475Y-77902860D01*
X44983027Y-78116654D01*
X44975833Y-78216292D01*
X44968777Y-78334378D01*
X44962725Y-78483530D01*
X44957730Y-78655266D01*
X44953850Y-78841106D01*
X44951141Y-79032569D01*
X44949659Y-79221174D01*
X44949459Y-79398440D01*
X44950598Y-79555885D01*
X44953132Y-79685030D01*
X44957116Y-79777393D01*
X44962608Y-79824494D01*
X44965175Y-79828764D01*
X44992403Y-79809990D01*
X45046192Y-79761289D01*
X45100736Y-79707471D01*
X45277685Y-79518155D01*
X45458197Y-79309151D01*
X45624526Y-79101518D01*
X45719296Y-78973515D01*
X45837357Y-78791915D01*
X45963031Y-78572255D01*
X46087967Y-78331274D01*
X46203814Y-78085712D01*
X46302218Y-77852309D01*
X46364488Y-77680355D01*
X46408207Y-77541559D01*
X46438525Y-77428103D01*
X46458457Y-77321722D01*
X46471019Y-77204156D01*
X46479226Y-77057143D01*
X46482727Y-76964352D01*
X46485694Y-76736185D01*
X46475036Y-76547736D01*
X46447757Y-76382641D01*
X46400861Y-76224535D01*
X46331350Y-76057057D01*
X46307193Y-76005771D01*
X46236055Y-75880983D01*
X46144066Y-75752376D01*
X46042374Y-75632794D01*
X45942126Y-75535082D01*
X45854471Y-75472088D01*
X45836722Y-75463635D01*
X45795620Y-75452693D01*
X45744545Y-75452861D01*
X45677545Y-75466292D01*
X45588670Y-75495135D01*
X45471969Y-75541540D01*
X45321491Y-75607659D01*
X45131286Y-75695641D01*
X44928284Y-75791919D01*
X44742716Y-75882945D01*
X44599612Y-75959370D01*
X44488362Y-76027601D01*
X44398359Y-76094044D01*
X44333551Y-76151139D01*
X44151704Y-76351910D01*
X43973351Y-76605695D01*
X43800777Y-76908446D01*
X43636272Y-77256109D01*
X43482123Y-77644635D01*
X43468107Y-77683503D01*
X43392370Y-77903776D01*
X43313497Y-78148298D01*
X43234267Y-78407115D01*
X43157458Y-78670272D01*
X43085850Y-78927811D01*
X43022219Y-79169780D01*
X42969345Y-79386222D01*
X42930006Y-79567181D01*
X42909227Y-79686067D01*
X42890960Y-79814494D01*
X42400153Y-79814494D01*
X42405243Y-79786623D01*
X42479385Y-79450976D01*
X42568458Y-79096712D01*
X42669124Y-78734910D01*
X42778046Y-78376647D01*
X42891887Y-78033000D01*
X43007311Y-77715049D01*
X43120980Y-77433871D01*
X43206887Y-77245955D01*
X43359293Y-76954474D01*
X43510910Y-76709842D01*
X43669981Y-76502547D01*
X43844748Y-76323080D01*
X44043455Y-76161928D01*
X44274344Y-76009581D01*
X44282773Y-76004494D01*
X44471450Y-75894643D01*
X44679123Y-75780182D01*
X44898716Y-75664442D01*
X45123147Y-75550755D01*
X45345340Y-75442451D01*
X45558215Y-75342862D01*
X45754694Y-75255319D01*
X45927697Y-75183154D01*
X46070147Y-75129697D01*
X46174964Y-75098281D01*
X46223487Y-75091178D01*
X46305224Y-75114674D01*
X46305224Y-75114674D01*
G37*
X46305224Y-75114674D02*
X46406135Y-75179667D01*
X46517161Y-75278049D01*
X46629243Y-75401711D01*
X46733320Y-75542545D01*
X46741155Y-75554505D01*
X46869737Y-75788886D01*
X46958034Y-76038062D01*
X47009698Y-76314494D01*
X47025839Y-76526178D01*
X47022978Y-76809376D01*
X46989807Y-77087055D01*
X46923730Y-77369378D01*
X46822151Y-77666509D01*
X46682474Y-77988614D01*
X46618901Y-78119608D01*
X46461335Y-78417405D01*
X46296911Y-78687355D01*
X46115512Y-78943650D01*
X45907017Y-79200482D01*
X45661309Y-79472045D01*
X45634299Y-79500561D01*
X45498210Y-79650186D01*
X45388704Y-79788169D01*
X45292653Y-79933389D01*
X45196930Y-80104728D01*
X45148489Y-80199316D01*
X45090710Y-80308672D01*
X45037148Y-80400012D01*
X44995896Y-80459960D01*
X44982260Y-80474097D01*
X44963643Y-80499272D01*
X44948779Y-80549524D01*
X44936527Y-80632740D01*
X44925746Y-80756803D01*
X44915297Y-80929598D01*
X44914680Y-80941235D01*
X44902681Y-81107883D01*
X44882897Y-81313591D01*
X44857273Y-81541178D01*
X44827751Y-81773460D01*
X44796275Y-81993254D01*
X44794038Y-82007802D01*
X44763118Y-82209858D01*
X44733038Y-82410167D01*
X44705687Y-82595874D01*
X44682953Y-82754123D01*
X44666725Y-82872059D01*
X44663902Y-82893761D01*
X44632251Y-83093753D01*
X44586735Y-83316680D01*
X44531053Y-83548827D01*
X44468902Y-83776481D01*
X44403978Y-83985929D01*
X44339978Y-84163456D01*
X44292056Y-84273023D01*
X44218651Y-84409677D01*
X44147319Y-84511441D01*
X44063210Y-84597936D01*
X44015408Y-84638597D01*
X43923923Y-84710052D01*
X43839139Y-84771077D01*
X43779988Y-84808127D01*
X43674439Y-84847573D01*
X43562643Y-84866136D01*
X43469023Y-84860420D01*
X43449522Y-84854062D01*
X43395723Y-84817014D01*
X43317422Y-84745332D01*
X43224588Y-84649876D01*
X43127190Y-84541505D01*
X43035196Y-84431078D01*
X42958577Y-84329456D01*
X42932972Y-84291376D01*
X42887734Y-84213751D01*
X42825119Y-84096779D01*
X42751577Y-83952985D01*
X42673555Y-83794891D01*
X42623030Y-83689417D01*
X42473224Y-83348036D01*
X42359871Y-83030454D01*
X42278425Y-82720753D01*
X42224341Y-82403017D01*
X42205231Y-82226067D01*
X42195581Y-82073697D01*
X42189959Y-81888727D01*
X42188164Y-81684355D01*
X42189993Y-81473778D01*
X42195245Y-81270194D01*
X42201444Y-81136002D01*
X42728523Y-81136002D01*
X42728585Y-81374733D01*
X42731757Y-81583932D01*
X42736435Y-81799132D01*
X42741581Y-81968172D01*
X42748297Y-82101969D01*
X42757684Y-82211438D01*
X42770840Y-82307495D01*
X42788868Y-82401056D01*
X42812867Y-82503036D01*
X42832001Y-82578276D01*
X42884518Y-82750852D01*
X42960089Y-82957725D01*
X43052285Y-83184317D01*
X43154680Y-83416049D01*
X43260844Y-83638343D01*
X43364352Y-83836621D01*
X43453782Y-83988545D01*
X43525240Y-84091812D01*
X43603742Y-84191915D01*
X43680596Y-84279321D01*
X43747109Y-84344500D01*
X43794589Y-84377918D01*
X43809886Y-84379051D01*
X43828849Y-84346367D01*
X43858005Y-84272452D01*
X43892127Y-84171032D01*
X43904842Y-84129690D01*
X43980200Y-83860453D01*
X44044769Y-83587798D01*
X44102174Y-83294674D01*
X44156040Y-82964031D01*
X44163880Y-82911230D01*
X44194129Y-82705027D01*
X44228809Y-82468232D01*
X44264132Y-82226736D01*
X44296308Y-82006431D01*
X44303818Y-81954943D01*
X44341557Y-81665110D01*
X44372367Y-81357823D01*
X44396600Y-81026279D01*
X44414611Y-80663674D01*
X44426753Y-80263204D01*
X44433378Y-79818066D01*
X44434944Y-79428674D01*
X44434944Y-78473907D01*
X44329556Y-78630493D01*
X44271778Y-78706181D01*
X44180391Y-78813566D01*
X44062847Y-78944694D01*
X43926595Y-79091611D01*
X43779086Y-79246363D01*
X43627770Y-79400995D01*
X43480097Y-79547555D01*
X43383529Y-79640472D01*
X43301093Y-79724056D01*
X43198406Y-79836164D01*
X43090295Y-79960291D01*
X43016156Y-80049395D01*
X42801210Y-80313917D01*
X42759958Y-80620722D01*
X42743925Y-80768709D01*
X42733542Y-80937231D01*
X42728523Y-81136002D01*
X42201444Y-81136002D01*
X42203717Y-81086803D01*
X42215207Y-80936801D01*
X42226288Y-80850570D01*
X42244389Y-80745073D01*
X41948374Y-80870273D01*
X41793407Y-80932382D01*
X41623426Y-80995063D01*
X41464971Y-81048727D01*
X41395506Y-81070013D01*
X41269004Y-81103180D01*
X41121977Y-81136200D01*
X40967238Y-81166836D01*
X40817597Y-81192849D01*
X40685866Y-81212002D01*
X40584857Y-81222057D01*
X40529634Y-81221265D01*
X40528077Y-81203240D01*
X40565307Y-81163406D01*
X40630993Y-81109028D01*
X40714802Y-81047374D01*
X40806404Y-80985709D01*
X40895467Y-80931299D01*
X40971660Y-80891411D01*
X41024290Y-80873359D01*
X41335080Y-80827288D01*
X41606541Y-80776774D01*
X41835067Y-80722777D01*
X42017054Y-80666257D01*
X42148898Y-80608175D01*
X42223002Y-80553975D01*
X42252014Y-80512949D01*
X42277105Y-80452150D01*
X42300933Y-80361872D01*
X42326157Y-80232404D01*
X42349368Y-80092575D01*
X42400153Y-79814494D01*
X42890960Y-79814494D01*
X43293626Y-79406110D01*
X43496840Y-79193862D01*
X43663334Y-79004583D01*
X43801727Y-78826567D01*
X43920638Y-78648107D01*
X44028687Y-78457498D01*
X44106638Y-78301910D01*
X44172831Y-78147363D01*
X44244050Y-77953017D01*
X44315125Y-77735233D01*
X44380886Y-77510375D01*
X44436164Y-77294802D01*
X44462183Y-77176553D01*
X44493316Y-77054943D01*
X44529751Y-76982130D01*
X44576621Y-76949835D01*
X44604943Y-76946292D01*
X44651896Y-76930642D01*
X44728016Y-76889614D01*
X44816761Y-76832134D01*
X44902477Y-76775038D01*
X44971967Y-76734100D01*
X45010488Y-76717987D01*
X45010912Y-76717977D01*
X45019797Y-76745214D01*
X45025277Y-76821940D01*
X45027529Y-76940679D01*
X45026726Y-77093953D01*
X45023044Y-77274285D01*
X45016658Y-77474198D01*
X45007743Y-77686215D01*
X44996475Y-77902860D01*
X44983027Y-78116654D01*
X44975833Y-78216292D01*
X44968777Y-78334378D01*
X44962725Y-78483530D01*
X44957730Y-78655266D01*
X44953850Y-78841106D01*
X44951141Y-79032569D01*
X44949659Y-79221174D01*
X44949459Y-79398440D01*
X44950598Y-79555885D01*
X44953132Y-79685030D01*
X44957116Y-79777393D01*
X44962608Y-79824494D01*
X44965175Y-79828764D01*
X44992403Y-79809990D01*
X45046192Y-79761289D01*
X45100736Y-79707471D01*
X45277685Y-79518155D01*
X45458197Y-79309151D01*
X45624526Y-79101518D01*
X45719296Y-78973515D01*
X45837357Y-78791915D01*
X45963031Y-78572255D01*
X46087967Y-78331274D01*
X46203814Y-78085712D01*
X46302218Y-77852309D01*
X46364488Y-77680355D01*
X46408207Y-77541559D01*
X46438525Y-77428103D01*
X46458457Y-77321722D01*
X46471019Y-77204156D01*
X46479226Y-77057143D01*
X46482727Y-76964352D01*
X46485694Y-76736185D01*
X46475036Y-76547736D01*
X46447757Y-76382641D01*
X46400861Y-76224535D01*
X46331350Y-76057057D01*
X46307193Y-76005771D01*
X46236055Y-75880983D01*
X46144066Y-75752376D01*
X46042374Y-75632794D01*
X45942126Y-75535082D01*
X45854471Y-75472088D01*
X45836722Y-75463635D01*
X45795620Y-75452693D01*
X45744545Y-75452861D01*
X45677545Y-75466292D01*
X45588670Y-75495135D01*
X45471969Y-75541540D01*
X45321491Y-75607659D01*
X45131286Y-75695641D01*
X44928284Y-75791919D01*
X44742716Y-75882945D01*
X44599612Y-75959370D01*
X44488362Y-76027601D01*
X44398359Y-76094044D01*
X44333551Y-76151139D01*
X44151704Y-76351910D01*
X43973351Y-76605695D01*
X43800777Y-76908446D01*
X43636272Y-77256109D01*
X43482123Y-77644635D01*
X43468107Y-77683503D01*
X43392370Y-77903776D01*
X43313497Y-78148298D01*
X43234267Y-78407115D01*
X43157458Y-78670272D01*
X43085850Y-78927811D01*
X43022219Y-79169780D01*
X42969345Y-79386222D01*
X42930006Y-79567181D01*
X42909227Y-79686067D01*
X42890960Y-79814494D01*
X42400153Y-79814494D01*
X42405243Y-79786623D01*
X42479385Y-79450976D01*
X42568458Y-79096712D01*
X42669124Y-78734910D01*
X42778046Y-78376647D01*
X42891887Y-78033000D01*
X43007311Y-77715049D01*
X43120980Y-77433871D01*
X43206887Y-77245955D01*
X43359293Y-76954474D01*
X43510910Y-76709842D01*
X43669981Y-76502547D01*
X43844748Y-76323080D01*
X44043455Y-76161928D01*
X44274344Y-76009581D01*
X44282773Y-76004494D01*
X44471450Y-75894643D01*
X44679123Y-75780182D01*
X44898716Y-75664442D01*
X45123147Y-75550755D01*
X45345340Y-75442451D01*
X45558215Y-75342862D01*
X45754694Y-75255319D01*
X45927697Y-75183154D01*
X46070147Y-75129697D01*
X46174964Y-75098281D01*
X46223487Y-75091178D01*
X46305224Y-75114674D01*
G04 #@! TO.C,TP1*
D14*
X54738095Y-84521428D02*
X55500000Y-84521428D01*
X55119047Y-84902380D02*
X55119047Y-84140476D01*
X56500000Y-84902380D02*
X55928571Y-84902380D01*
X56214285Y-84902380D02*
X56214285Y-83902380D01*
X56119047Y-84045238D01*
X56023809Y-84140476D01*
X55928571Y-84188095D01*
X57404761Y-83902380D02*
X56928571Y-83902380D01*
X56880952Y-84378571D01*
X56928571Y-84330952D01*
X57023809Y-84283333D01*
X57261904Y-84283333D01*
X57357142Y-84330952D01*
X57404761Y-84378571D01*
X57452380Y-84473809D01*
X57452380Y-84711904D01*
X57404761Y-84807142D01*
X57357142Y-84854761D01*
X57261904Y-84902380D01*
X57023809Y-84902380D01*
X56928571Y-84854761D01*
X56880952Y-84807142D01*
X57738095Y-83902380D02*
X58071428Y-84902380D01*
X58404761Y-83902380D01*
G04 #@! TO.C,TP3*
X67309523Y-83952380D02*
X66833333Y-83952380D01*
X66785714Y-84428571D01*
X66833333Y-84380952D01*
X66928571Y-84333333D01*
X67166666Y-84333333D01*
X67261904Y-84380952D01*
X67309523Y-84428571D01*
X67357142Y-84523809D01*
X67357142Y-84761904D01*
X67309523Y-84857142D01*
X67261904Y-84904761D01*
X67166666Y-84952380D01*
X66928571Y-84952380D01*
X66833333Y-84904761D01*
X66785714Y-84857142D01*
X67642857Y-83952380D02*
X67976190Y-84952380D01*
X68309523Y-83952380D01*
G04 #@! TO.C,TP2*
X83988095Y-66371428D02*
X84750000Y-66371428D01*
X85750000Y-66752380D02*
X85178571Y-66752380D01*
X85464285Y-66752380D02*
X85464285Y-65752380D01*
X85369047Y-65895238D01*
X85273809Y-65990476D01*
X85178571Y-66038095D01*
X86654761Y-65752380D02*
X86178571Y-65752380D01*
X86130952Y-66228571D01*
X86178571Y-66180952D01*
X86273809Y-66133333D01*
X86511904Y-66133333D01*
X86607142Y-66180952D01*
X86654761Y-66228571D01*
X86702380Y-66323809D01*
X86702380Y-66561904D01*
X86654761Y-66657142D01*
X86607142Y-66704761D01*
X86511904Y-66752380D01*
X86273809Y-66752380D01*
X86178571Y-66704761D01*
X86130952Y-66657142D01*
X86988095Y-65752380D02*
X87321428Y-66752380D01*
X87654761Y-65752380D01*
G04 #@! TO.C,U1*
X75698095Y-89012380D02*
X75698095Y-89821904D01*
X75745714Y-89917142D01*
X75793333Y-89964761D01*
X75888571Y-90012380D01*
X76079047Y-90012380D01*
X76174285Y-89964761D01*
X76221904Y-89917142D01*
X76269523Y-89821904D01*
X76269523Y-89012380D01*
X77269523Y-90012380D02*
X76698095Y-90012380D01*
X76983809Y-90012380D02*
X76983809Y-89012380D01*
X76888571Y-89155238D01*
X76793333Y-89250476D01*
X76698095Y-89298095D01*
G04 #@! TD*
M02*
