G04 #@! TF.GenerationSoftware,KiCad,Pcbnew,(5.0.2)-1*
G04 #@! TF.CreationDate,2019-01-19T19:24:23-05:00*
G04 #@! TF.ProjectId,Keithley_177_power_repair,4b656974-686c-4657-995f-3137375f706f,rev?*
G04 #@! TF.SameCoordinates,Original*
G04 #@! TF.FileFunction,Legend,Bot*
G04 #@! TF.FilePolarity,Positive*
%FSLAX46Y46*%
G04 Gerber Fmt 4.6, Leading zero omitted, Abs format (unit mm)*
G04 Created by KiCad (PCBNEW (5.0.2)-1) date 1/19/2019 7:24:23 PM*
%MOMM*%
%LPD*%
G01*
G04 APERTURE LIST*
%ADD10C,0.300000*%
G04 APERTURE END LIST*
D10*
X53178571Y-46214285D02*
X51678571Y-46214285D01*
X53178571Y-47071428D02*
X52321428Y-46428571D01*
X51678571Y-47071428D02*
X52535714Y-46214285D01*
X53107142Y-48285714D02*
X53178571Y-48142857D01*
X53178571Y-47857142D01*
X53107142Y-47714285D01*
X52964285Y-47642857D01*
X52392857Y-47642857D01*
X52250000Y-47714285D01*
X52178571Y-47857142D01*
X52178571Y-48142857D01*
X52250000Y-48285714D01*
X52392857Y-48357142D01*
X52535714Y-48357142D01*
X52678571Y-47642857D01*
X53178571Y-49000000D02*
X52178571Y-49000000D01*
X51678571Y-49000000D02*
X51750000Y-48928571D01*
X51821428Y-49000000D01*
X51750000Y-49071428D01*
X51678571Y-49000000D01*
X51821428Y-49000000D01*
X52178571Y-49500000D02*
X52178571Y-50071428D01*
X51678571Y-49714285D02*
X52964285Y-49714285D01*
X53107142Y-49785714D01*
X53178571Y-49928571D01*
X53178571Y-50071428D01*
X53178571Y-50571428D02*
X51678571Y-50571428D01*
X53178571Y-51214285D02*
X52392857Y-51214285D01*
X52250000Y-51142857D01*
X52178571Y-51000000D01*
X52178571Y-50785714D01*
X52250000Y-50642857D01*
X52321428Y-50571428D01*
X53178571Y-52142857D02*
X53107142Y-52000000D01*
X52964285Y-51928571D01*
X51678571Y-51928571D01*
X52178571Y-52571428D02*
X53178571Y-52928571D01*
X52178571Y-53285714D02*
X53178571Y-52928571D01*
X53535714Y-52785714D01*
X53607142Y-52714285D01*
X53678571Y-52571428D01*
X53178571Y-55785714D02*
X53178571Y-54928571D01*
X53178571Y-55357142D02*
X51678571Y-55357142D01*
X51892857Y-55214285D01*
X52035714Y-55071428D01*
X52107142Y-54928571D01*
X51678571Y-56285714D02*
X51678571Y-57285714D01*
X53178571Y-56642857D01*
X51678571Y-57714285D02*
X51678571Y-58714285D01*
X53178571Y-58071428D01*
X51678571Y-60214285D02*
X51678571Y-61071428D01*
X53178571Y-60642857D02*
X51678571Y-60642857D01*
X53178571Y-61571428D02*
X52178571Y-61571428D01*
X52464285Y-61571428D02*
X52321428Y-61642857D01*
X52250000Y-61714285D01*
X52178571Y-61857142D01*
X52178571Y-62000000D01*
X53178571Y-63142857D02*
X52392857Y-63142857D01*
X52250000Y-63071428D01*
X52178571Y-62928571D01*
X52178571Y-62642857D01*
X52250000Y-62500000D01*
X53107142Y-63142857D02*
X53178571Y-63000000D01*
X53178571Y-62642857D01*
X53107142Y-62500000D01*
X52964285Y-62428571D01*
X52821428Y-62428571D01*
X52678571Y-62500000D01*
X52607142Y-62642857D01*
X52607142Y-63000000D01*
X52535714Y-63142857D01*
X52178571Y-63857142D02*
X53178571Y-63857142D01*
X52321428Y-63857142D02*
X52250000Y-63928571D01*
X52178571Y-64071428D01*
X52178571Y-64285714D01*
X52250000Y-64428571D01*
X52392857Y-64500000D01*
X53178571Y-64500000D01*
X53107142Y-65142857D02*
X53178571Y-65285714D01*
X53178571Y-65571428D01*
X53107142Y-65714285D01*
X52964285Y-65785714D01*
X52892857Y-65785714D01*
X52750000Y-65714285D01*
X52678571Y-65571428D01*
X52678571Y-65357142D01*
X52607142Y-65214285D01*
X52464285Y-65142857D01*
X52392857Y-65142857D01*
X52250000Y-65214285D01*
X52178571Y-65357142D01*
X52178571Y-65571428D01*
X52250000Y-65714285D01*
X52178571Y-66214285D02*
X52178571Y-66785714D01*
X53178571Y-66428571D02*
X51892857Y-66428571D01*
X51750000Y-66500000D01*
X51678571Y-66642857D01*
X51678571Y-66785714D01*
X53178571Y-67500000D02*
X53107142Y-67357142D01*
X53035714Y-67285714D01*
X52892857Y-67214285D01*
X52464285Y-67214285D01*
X52321428Y-67285714D01*
X52250000Y-67357142D01*
X52178571Y-67500000D01*
X52178571Y-67714285D01*
X52250000Y-67857142D01*
X52321428Y-67928571D01*
X52464285Y-68000000D01*
X52892857Y-68000000D01*
X53035714Y-67928571D01*
X53107142Y-67857142D01*
X53178571Y-67714285D01*
X53178571Y-67500000D01*
X53178571Y-68642857D02*
X52178571Y-68642857D01*
X52464285Y-68642857D02*
X52321428Y-68714285D01*
X52250000Y-68785714D01*
X52178571Y-68928571D01*
X52178571Y-69071428D01*
X53178571Y-69571428D02*
X52178571Y-69571428D01*
X52321428Y-69571428D02*
X52250000Y-69642857D01*
X52178571Y-69785714D01*
X52178571Y-70000000D01*
X52250000Y-70142857D01*
X52392857Y-70214285D01*
X53178571Y-70214285D01*
X52392857Y-70214285D02*
X52250000Y-70285714D01*
X52178571Y-70428571D01*
X52178571Y-70642857D01*
X52250000Y-70785714D01*
X52392857Y-70857142D01*
X53178571Y-70857142D01*
X53107142Y-72142857D02*
X53178571Y-72000000D01*
X53178571Y-71714285D01*
X53107142Y-71571428D01*
X52964285Y-71500000D01*
X52392857Y-71500000D01*
X52250000Y-71571428D01*
X52178571Y-71714285D01*
X52178571Y-72000000D01*
X52250000Y-72142857D01*
X52392857Y-72214285D01*
X52535714Y-72214285D01*
X52678571Y-71500000D01*
X53178571Y-72857142D02*
X52178571Y-72857142D01*
X52464285Y-72857142D02*
X52321428Y-72928571D01*
X52250000Y-73000000D01*
X52178571Y-73142857D01*
X52178571Y-73285714D01*
X53178571Y-75785714D02*
X52464285Y-75285714D01*
X53178571Y-74928571D02*
X51678571Y-74928571D01*
X51678571Y-75500000D01*
X51750000Y-75642857D01*
X51821428Y-75714285D01*
X51964285Y-75785714D01*
X52178571Y-75785714D01*
X52321428Y-75714285D01*
X52392857Y-75642857D01*
X52464285Y-75500000D01*
X52464285Y-74928571D01*
X53107142Y-77000000D02*
X53178571Y-76857142D01*
X53178571Y-76571428D01*
X53107142Y-76428571D01*
X52964285Y-76357142D01*
X52392857Y-76357142D01*
X52250000Y-76428571D01*
X52178571Y-76571428D01*
X52178571Y-76857142D01*
X52250000Y-77000000D01*
X52392857Y-77071428D01*
X52535714Y-77071428D01*
X52678571Y-76357142D01*
X52178571Y-77714285D02*
X53678571Y-77714285D01*
X52250000Y-77714285D02*
X52178571Y-77857142D01*
X52178571Y-78142857D01*
X52250000Y-78285714D01*
X52321428Y-78357142D01*
X52464285Y-78428571D01*
X52892857Y-78428571D01*
X53035714Y-78357142D01*
X53107142Y-78285714D01*
X53178571Y-78142857D01*
X53178571Y-77857142D01*
X53107142Y-77714285D01*
X53178571Y-79285714D02*
X53107142Y-79142857D01*
X52964285Y-79071428D01*
X51678571Y-79071428D01*
X53178571Y-80500000D02*
X52392857Y-80500000D01*
X52250000Y-80428571D01*
X52178571Y-80285714D01*
X52178571Y-80000000D01*
X52250000Y-79857142D01*
X53107142Y-80500000D02*
X53178571Y-80357142D01*
X53178571Y-80000000D01*
X53107142Y-79857142D01*
X52964285Y-79785714D01*
X52821428Y-79785714D01*
X52678571Y-79857142D01*
X52607142Y-80000000D01*
X52607142Y-80357142D01*
X52535714Y-80500000D01*
X53107142Y-81857142D02*
X53178571Y-81714285D01*
X53178571Y-81428571D01*
X53107142Y-81285714D01*
X53035714Y-81214285D01*
X52892857Y-81142857D01*
X52464285Y-81142857D01*
X52321428Y-81214285D01*
X52250000Y-81285714D01*
X52178571Y-81428571D01*
X52178571Y-81714285D01*
X52250000Y-81857142D01*
X53178571Y-82500000D02*
X52178571Y-82500000D01*
X52321428Y-82500000D02*
X52250000Y-82571428D01*
X52178571Y-82714285D01*
X52178571Y-82928571D01*
X52250000Y-83071428D01*
X52392857Y-83142857D01*
X53178571Y-83142857D01*
X52392857Y-83142857D02*
X52250000Y-83214285D01*
X52178571Y-83357142D01*
X52178571Y-83571428D01*
X52250000Y-83714285D01*
X52392857Y-83785714D01*
X53178571Y-83785714D01*
X53107142Y-85071428D02*
X53178571Y-84928571D01*
X53178571Y-84642857D01*
X53107142Y-84500000D01*
X52964285Y-84428571D01*
X52392857Y-84428571D01*
X52250000Y-84500000D01*
X52178571Y-84642857D01*
X52178571Y-84928571D01*
X52250000Y-85071428D01*
X52392857Y-85142857D01*
X52535714Y-85142857D01*
X52678571Y-84428571D01*
X52178571Y-85785714D02*
X53178571Y-85785714D01*
X52321428Y-85785714D02*
X52250000Y-85857142D01*
X52178571Y-86000000D01*
X52178571Y-86214285D01*
X52250000Y-86357142D01*
X52392857Y-86428571D01*
X53178571Y-86428571D01*
X52178571Y-86928571D02*
X52178571Y-87500000D01*
X51678571Y-87142857D02*
X52964285Y-87142857D01*
X53107142Y-87214285D01*
X53178571Y-87357142D01*
X53178571Y-87500000D01*
M02*
