G04 #@! TF.GenerationSoftware,KiCad,Pcbnew,(5.0.2)-1*
G04 #@! TF.CreationDate,2019-01-19T19:24:23-05:00*
G04 #@! TF.ProjectId,Keithley_177_power_repair,4b656974-686c-4657-995f-3137375f706f,rev?*
G04 #@! TF.SameCoordinates,Original*
G04 #@! TF.FileFunction,Copper,L1,Top*
G04 #@! TF.FilePolarity,Positive*
%FSLAX46Y46*%
G04 Gerber Fmt 4.6, Leading zero omitted, Abs format (unit mm)*
G04 Created by KiCad (PCBNEW (5.0.2)-1) date 1/19/2019 7:24:23 PM*
%MOMM*%
%LPD*%
G01*
G04 APERTURE LIST*
G04 #@! TA.AperFunction,ComponentPad*
%ADD10O,5.000000X3.000000*%
G04 #@! TD*
G04 #@! TA.AperFunction,ComponentPad*
%ADD11O,4.000000X3.000000*%
G04 #@! TD*
G04 #@! TA.AperFunction,ComponentPad*
%ADD12C,4.000000*%
G04 #@! TD*
G04 #@! TA.AperFunction,ComponentPad*
%ADD13C,3.000000*%
G04 #@! TD*
G04 #@! TA.AperFunction,ComponentPad*
%ADD14R,3.000000X3.000000*%
G04 #@! TD*
G04 #@! TA.AperFunction,BGAPad,CuDef*
%ADD15C,2.000000*%
G04 #@! TD*
G04 #@! TA.AperFunction,ComponentPad*
%ADD16R,1.500000X2.300000*%
G04 #@! TD*
G04 #@! TA.AperFunction,ComponentPad*
%ADD17O,1.500000X2.300000*%
G04 #@! TD*
G04 #@! TA.AperFunction,Conductor*
%ADD18C,0.800000*%
G04 #@! TD*
G04 #@! TA.AperFunction,Conductor*
%ADD19C,2.000000*%
G04 #@! TD*
G04 #@! TA.AperFunction,Conductor*
%ADD20C,1.500000*%
G04 #@! TD*
G04 #@! TA.AperFunction,Conductor*
%ADD21C,0.254000*%
G04 #@! TD*
G04 APERTURE END LIST*
D10*
G04 #@! TO.P,VR101,1*
G04 #@! TO.N,Net-(U1-Pad1)*
X81200000Y-78000000D03*
D11*
G04 #@! TO.P,VR101,2*
G04 #@! TO.N,GNDA*
X85700000Y-75500000D03*
D10*
G04 #@! TO.P,VR101,3*
G04 #@! TO.N,Net-(TP3-Pad1)*
X81200000Y-73000000D03*
G04 #@! TD*
D12*
G04 #@! TO.P,T101,2*
G04 #@! TO.N,+15V*
X65000000Y-78000000D03*
G04 #@! TO.P,T101,3*
G04 #@! TO.N,GND*
X65000000Y-70400000D03*
G04 #@! TO.P,T101,4*
G04 #@! TO.N,+15V*
X65000000Y-62700000D03*
G04 #@! TO.P,T101,5*
G04 #@! TO.N,GND*
X65000000Y-55200000D03*
G04 #@! TO.P,T101,6*
G04 #@! TO.N,-15V*
X65000000Y-47600000D03*
G04 #@! TO.P,T101,8*
G04 #@! TO.N,/N*
X35400000Y-55300000D03*
G04 #@! TO.P,T101,11*
G04 #@! TO.N,/L*
X35400000Y-77900000D03*
G04 #@! TD*
D13*
G04 #@! TO.P,T1,5*
G04 #@! TO.N,+15V*
X79720000Y-48000000D03*
G04 #@! TO.P,T1,4*
G04 #@! TO.N,GND*
X79720000Y-58160000D03*
G04 #@! TO.P,T1,3*
G04 #@! TO.N,-15V*
X79720000Y-68320000D03*
G04 #@! TO.P,T1,2*
G04 #@! TO.N,/L*
X34000000Y-68320000D03*
D14*
G04 #@! TO.P,T1,1*
G04 #@! TO.N,/N*
X34000000Y-48000000D03*
G04 #@! TD*
D15*
G04 #@! TO.P,TP1,1*
G04 #@! TO.N,+15V*
X56500000Y-86500000D03*
G04 #@! TD*
G04 #@! TO.P,TP3,1*
G04 #@! TO.N,Net-(TP3-Pad1)*
X67500000Y-86500000D03*
G04 #@! TD*
G04 #@! TO.P,TP2,1*
G04 #@! TO.N,-15V*
X85750000Y-68300000D03*
G04 #@! TD*
D16*
G04 #@! TO.P,U1,1*
G04 #@! TO.N,Net-(U1-Pad1)*
X79000000Y-82000000D03*
D17*
G04 #@! TO.P,U1,2*
G04 #@! TO.N,GNDA*
X76460000Y-82000000D03*
G04 #@! TO.P,U1,3*
G04 #@! TO.N,Net-(TP3-Pad1)*
X73920000Y-82000000D03*
G04 #@! TD*
D18*
G04 #@! TO.N,-15V*
X85730000Y-68320000D02*
X85750000Y-68300000D01*
X79720000Y-68320000D02*
X85730000Y-68320000D01*
D19*
G04 #@! TO.N,+15V*
X79720000Y-48000000D02*
X79700000Y-48000000D01*
X65000000Y-62700000D02*
X62700000Y-62700000D01*
D20*
G04 #@! TO.N,Net-(U1-Pad1)*
X79000000Y-81200000D02*
X82200000Y-78000000D01*
X79000000Y-82000000D02*
X79000000Y-81200000D01*
G04 #@! TO.N,GNDA*
X84750000Y-75500000D02*
X84800000Y-75450000D01*
X77500000Y-75500000D02*
X84750000Y-75500000D01*
X76460000Y-82000000D02*
X76460000Y-76540000D01*
X76460000Y-76540000D02*
X77500000Y-75500000D01*
G04 #@! TO.N,Net-(TP3-Pad1)*
X73920000Y-82000000D02*
X73920000Y-74080000D01*
X75100000Y-72900000D02*
X82200000Y-72900000D01*
X73920000Y-74080000D02*
X75100000Y-72900000D01*
D18*
X67500000Y-86500000D02*
X72700000Y-86500000D01*
X73920000Y-85280000D02*
X73920000Y-82000000D01*
X72700000Y-86500000D02*
X73920000Y-85280000D01*
G04 #@! TD*
D21*
G04 #@! TO.N,/N*
G36*
X38873000Y-56991672D02*
X38808120Y-57484485D01*
X38621116Y-57935952D01*
X38323636Y-58323636D01*
X38031239Y-58548000D01*
X31452000Y-58548000D01*
X31452000Y-57175022D01*
X33704584Y-57175022D01*
X33925353Y-57545743D01*
X34897012Y-57939119D01*
X35945247Y-57930713D01*
X36874647Y-57545743D01*
X37095416Y-57175022D01*
X35400000Y-55479605D01*
X33704584Y-57175022D01*
X31452000Y-57175022D01*
X31452000Y-54797012D01*
X32760881Y-54797012D01*
X32769287Y-55845247D01*
X33154257Y-56774647D01*
X33524978Y-56995416D01*
X35220395Y-55300000D01*
X35579605Y-55300000D01*
X37275022Y-56995416D01*
X37645743Y-56774647D01*
X38039119Y-55802988D01*
X38030713Y-54754753D01*
X37645743Y-53825353D01*
X37275022Y-53604584D01*
X35579605Y-55300000D01*
X35220395Y-55300000D01*
X33524978Y-53604584D01*
X33154257Y-53825353D01*
X32760881Y-54797012D01*
X31452000Y-54797012D01*
X31452000Y-53424978D01*
X33704584Y-53424978D01*
X35400000Y-55120395D01*
X37095416Y-53424978D01*
X36874647Y-53054257D01*
X35902988Y-52660881D01*
X34854753Y-52669287D01*
X33925353Y-53054257D01*
X33704584Y-53424978D01*
X31452000Y-53424978D01*
X31452000Y-48285750D01*
X31865000Y-48285750D01*
X31865000Y-49626310D01*
X31961673Y-49859699D01*
X32140302Y-50038327D01*
X32373691Y-50135000D01*
X33714250Y-50135000D01*
X33873000Y-49976250D01*
X33873000Y-48127000D01*
X34127000Y-48127000D01*
X34127000Y-49976250D01*
X34285750Y-50135000D01*
X35626309Y-50135000D01*
X35859698Y-50038327D01*
X36038327Y-49859699D01*
X36135000Y-49626310D01*
X36135000Y-48285750D01*
X35976250Y-48127000D01*
X34127000Y-48127000D01*
X33873000Y-48127000D01*
X32023750Y-48127000D01*
X31865000Y-48285750D01*
X31452000Y-48285750D01*
X31452000Y-46373690D01*
X31865000Y-46373690D01*
X31865000Y-47714250D01*
X32023750Y-47873000D01*
X33873000Y-47873000D01*
X33873000Y-46023750D01*
X34127000Y-46023750D01*
X34127000Y-47873000D01*
X35976250Y-47873000D01*
X36135000Y-47714250D01*
X36135000Y-46373690D01*
X36038327Y-46140301D01*
X35859698Y-45961673D01*
X35626309Y-45865000D01*
X34285750Y-45865000D01*
X34127000Y-46023750D01*
X33873000Y-46023750D01*
X33714250Y-45865000D01*
X32373691Y-45865000D01*
X32140302Y-45961673D01*
X31961673Y-46140301D01*
X31865000Y-46373690D01*
X31452000Y-46373690D01*
X31452000Y-45452000D01*
X38873000Y-45452000D01*
X38873000Y-56991672D01*
X38873000Y-56991672D01*
G37*
X38873000Y-56991672D02*
X38808120Y-57484485D01*
X38621116Y-57935952D01*
X38323636Y-58323636D01*
X38031239Y-58548000D01*
X31452000Y-58548000D01*
X31452000Y-57175022D01*
X33704584Y-57175022D01*
X33925353Y-57545743D01*
X34897012Y-57939119D01*
X35945247Y-57930713D01*
X36874647Y-57545743D01*
X37095416Y-57175022D01*
X35400000Y-55479605D01*
X33704584Y-57175022D01*
X31452000Y-57175022D01*
X31452000Y-54797012D01*
X32760881Y-54797012D01*
X32769287Y-55845247D01*
X33154257Y-56774647D01*
X33524978Y-56995416D01*
X35220395Y-55300000D01*
X35579605Y-55300000D01*
X37275022Y-56995416D01*
X37645743Y-56774647D01*
X38039119Y-55802988D01*
X38030713Y-54754753D01*
X37645743Y-53825353D01*
X37275022Y-53604584D01*
X35579605Y-55300000D01*
X35220395Y-55300000D01*
X33524978Y-53604584D01*
X33154257Y-53825353D01*
X32760881Y-54797012D01*
X31452000Y-54797012D01*
X31452000Y-53424978D01*
X33704584Y-53424978D01*
X35400000Y-55120395D01*
X37095416Y-53424978D01*
X36874647Y-53054257D01*
X35902988Y-52660881D01*
X34854753Y-52669287D01*
X33925353Y-53054257D01*
X33704584Y-53424978D01*
X31452000Y-53424978D01*
X31452000Y-48285750D01*
X31865000Y-48285750D01*
X31865000Y-49626310D01*
X31961673Y-49859699D01*
X32140302Y-50038327D01*
X32373691Y-50135000D01*
X33714250Y-50135000D01*
X33873000Y-49976250D01*
X33873000Y-48127000D01*
X34127000Y-48127000D01*
X34127000Y-49976250D01*
X34285750Y-50135000D01*
X35626309Y-50135000D01*
X35859698Y-50038327D01*
X36038327Y-49859699D01*
X36135000Y-49626310D01*
X36135000Y-48285750D01*
X35976250Y-48127000D01*
X34127000Y-48127000D01*
X33873000Y-48127000D01*
X32023750Y-48127000D01*
X31865000Y-48285750D01*
X31452000Y-48285750D01*
X31452000Y-46373690D01*
X31865000Y-46373690D01*
X31865000Y-47714250D01*
X32023750Y-47873000D01*
X33873000Y-47873000D01*
X33873000Y-46023750D01*
X34127000Y-46023750D01*
X34127000Y-47873000D01*
X35976250Y-47873000D01*
X36135000Y-47714250D01*
X36135000Y-46373690D01*
X36038327Y-46140301D01*
X35859698Y-45961673D01*
X35626309Y-45865000D01*
X34285750Y-45865000D01*
X34127000Y-46023750D01*
X33873000Y-46023750D01*
X33714250Y-45865000D01*
X32373691Y-45865000D01*
X32140302Y-45961673D01*
X31961673Y-46140301D01*
X31865000Y-46373690D01*
X31452000Y-46373690D01*
X31452000Y-45452000D01*
X38873000Y-45452000D01*
X38873000Y-56991672D01*
G04 #@! TO.N,/L*
G36*
X37484485Y-65191880D02*
X37935952Y-65378884D01*
X38323636Y-65676364D01*
X38621116Y-66064048D01*
X38808120Y-66515515D01*
X38873000Y-67008328D01*
X38873000Y-79991672D01*
X38808120Y-80484485D01*
X38621116Y-80935952D01*
X38323636Y-81323636D01*
X37935952Y-81621116D01*
X37484485Y-81808120D01*
X36991672Y-81873000D01*
X31008328Y-81873000D01*
X30710000Y-81833724D01*
X30710000Y-79775022D01*
X33704584Y-79775022D01*
X33925353Y-80145743D01*
X34897012Y-80539119D01*
X35945247Y-80530713D01*
X36874647Y-80145743D01*
X37095416Y-79775022D01*
X35400000Y-78079605D01*
X33704584Y-79775022D01*
X30710000Y-79775022D01*
X30710000Y-77397012D01*
X32760881Y-77397012D01*
X32769287Y-78445247D01*
X33154257Y-79374647D01*
X33524978Y-79595416D01*
X35220395Y-77900000D01*
X35579605Y-77900000D01*
X37275022Y-79595416D01*
X37645743Y-79374647D01*
X38039119Y-78402988D01*
X38030713Y-77354753D01*
X37645743Y-76425353D01*
X37275022Y-76204584D01*
X35579605Y-77900000D01*
X35220395Y-77900000D01*
X33524978Y-76204584D01*
X33154257Y-76425353D01*
X32760881Y-77397012D01*
X30710000Y-77397012D01*
X30710000Y-76024978D01*
X33704584Y-76024978D01*
X35400000Y-77720395D01*
X37095416Y-76024978D01*
X36874647Y-75654257D01*
X35902988Y-75260881D01*
X34854753Y-75269287D01*
X33925353Y-75654257D01*
X33704584Y-76024978D01*
X30710000Y-76024978D01*
X30710000Y-69833970D01*
X32665635Y-69833970D01*
X32825418Y-70152739D01*
X33616187Y-70462723D01*
X34465387Y-70446497D01*
X35174582Y-70152739D01*
X35334365Y-69833970D01*
X34000000Y-68499605D01*
X32665635Y-69833970D01*
X30710000Y-69833970D01*
X30710000Y-67936187D01*
X31857277Y-67936187D01*
X31873503Y-68785387D01*
X32167261Y-69494582D01*
X32486030Y-69654365D01*
X33820395Y-68320000D01*
X34179605Y-68320000D01*
X35513970Y-69654365D01*
X35832739Y-69494582D01*
X36142723Y-68703813D01*
X36126497Y-67854613D01*
X35832739Y-67145418D01*
X35513970Y-66985635D01*
X34179605Y-68320000D01*
X33820395Y-68320000D01*
X32486030Y-66985635D01*
X32167261Y-67145418D01*
X31857277Y-67936187D01*
X30710000Y-67936187D01*
X30710000Y-66806030D01*
X32665635Y-66806030D01*
X34000000Y-68140395D01*
X35334365Y-66806030D01*
X35174582Y-66487261D01*
X34383813Y-66177277D01*
X33534613Y-66193503D01*
X32825418Y-66487261D01*
X32665635Y-66806030D01*
X30710000Y-66806030D01*
X30710000Y-65166276D01*
X31008328Y-65127000D01*
X36991672Y-65127000D01*
X37484485Y-65191880D01*
X37484485Y-65191880D01*
G37*
X37484485Y-65191880D02*
X37935952Y-65378884D01*
X38323636Y-65676364D01*
X38621116Y-66064048D01*
X38808120Y-66515515D01*
X38873000Y-67008328D01*
X38873000Y-79991672D01*
X38808120Y-80484485D01*
X38621116Y-80935952D01*
X38323636Y-81323636D01*
X37935952Y-81621116D01*
X37484485Y-81808120D01*
X36991672Y-81873000D01*
X31008328Y-81873000D01*
X30710000Y-81833724D01*
X30710000Y-79775022D01*
X33704584Y-79775022D01*
X33925353Y-80145743D01*
X34897012Y-80539119D01*
X35945247Y-80530713D01*
X36874647Y-80145743D01*
X37095416Y-79775022D01*
X35400000Y-78079605D01*
X33704584Y-79775022D01*
X30710000Y-79775022D01*
X30710000Y-77397012D01*
X32760881Y-77397012D01*
X32769287Y-78445247D01*
X33154257Y-79374647D01*
X33524978Y-79595416D01*
X35220395Y-77900000D01*
X35579605Y-77900000D01*
X37275022Y-79595416D01*
X37645743Y-79374647D01*
X38039119Y-78402988D01*
X38030713Y-77354753D01*
X37645743Y-76425353D01*
X37275022Y-76204584D01*
X35579605Y-77900000D01*
X35220395Y-77900000D01*
X33524978Y-76204584D01*
X33154257Y-76425353D01*
X32760881Y-77397012D01*
X30710000Y-77397012D01*
X30710000Y-76024978D01*
X33704584Y-76024978D01*
X35400000Y-77720395D01*
X37095416Y-76024978D01*
X36874647Y-75654257D01*
X35902988Y-75260881D01*
X34854753Y-75269287D01*
X33925353Y-75654257D01*
X33704584Y-76024978D01*
X30710000Y-76024978D01*
X30710000Y-69833970D01*
X32665635Y-69833970D01*
X32825418Y-70152739D01*
X33616187Y-70462723D01*
X34465387Y-70446497D01*
X35174582Y-70152739D01*
X35334365Y-69833970D01*
X34000000Y-68499605D01*
X32665635Y-69833970D01*
X30710000Y-69833970D01*
X30710000Y-67936187D01*
X31857277Y-67936187D01*
X31873503Y-68785387D01*
X32167261Y-69494582D01*
X32486030Y-69654365D01*
X33820395Y-68320000D01*
X34179605Y-68320000D01*
X35513970Y-69654365D01*
X35832739Y-69494582D01*
X36142723Y-68703813D01*
X36126497Y-67854613D01*
X35832739Y-67145418D01*
X35513970Y-66985635D01*
X34179605Y-68320000D01*
X33820395Y-68320000D01*
X32486030Y-66985635D01*
X32167261Y-67145418D01*
X31857277Y-67936187D01*
X30710000Y-67936187D01*
X30710000Y-66806030D01*
X32665635Y-66806030D01*
X34000000Y-68140395D01*
X35334365Y-66806030D01*
X35174582Y-66487261D01*
X34383813Y-66177277D01*
X33534613Y-66193503D01*
X32825418Y-66487261D01*
X32665635Y-66806030D01*
X30710000Y-66806030D01*
X30710000Y-65166276D01*
X31008328Y-65127000D01*
X36991672Y-65127000D01*
X37484485Y-65191880D01*
G04 #@! TO.N,GND*
G36*
X82561754Y-52296956D02*
X82792060Y-52748956D01*
X82873000Y-53259992D01*
X82873000Y-60990168D01*
X82782776Y-61569301D01*
X82525107Y-62084639D01*
X82115932Y-62504301D01*
X67635000Y-73365000D01*
X63041624Y-73365000D01*
X62648127Y-73313195D01*
X62320242Y-73177381D01*
X62038674Y-72961326D01*
X61822619Y-72679758D01*
X61686805Y-72351873D01*
X61676688Y-72275022D01*
X63304584Y-72275022D01*
X63525353Y-72645743D01*
X64497012Y-73039119D01*
X65545247Y-73030713D01*
X66474647Y-72645743D01*
X66695416Y-72275022D01*
X65000000Y-70579605D01*
X63304584Y-72275022D01*
X61676688Y-72275022D01*
X61635000Y-71958376D01*
X61635000Y-69897012D01*
X62360881Y-69897012D01*
X62369287Y-70945247D01*
X62754257Y-71874647D01*
X63124978Y-72095416D01*
X64820395Y-70400000D01*
X65179605Y-70400000D01*
X66875022Y-72095416D01*
X67245743Y-71874647D01*
X67639119Y-70902988D01*
X67630713Y-69854753D01*
X67245743Y-68925353D01*
X66875022Y-68704584D01*
X65179605Y-70400000D01*
X64820395Y-70400000D01*
X63124978Y-68704584D01*
X62754257Y-68925353D01*
X62360881Y-69897012D01*
X61635000Y-69897012D01*
X61635000Y-68524978D01*
X63304584Y-68524978D01*
X65000000Y-70220395D01*
X66695416Y-68524978D01*
X66474647Y-68154257D01*
X65502988Y-67760881D01*
X64454753Y-67769287D01*
X63525353Y-68154257D01*
X63304584Y-68524978D01*
X61635000Y-68524978D01*
X61635000Y-68041624D01*
X61686805Y-67648127D01*
X61822619Y-67320242D01*
X62038674Y-67038674D01*
X62320242Y-66822619D01*
X62648127Y-66686805D01*
X63041624Y-66635000D01*
X66000000Y-66635000D01*
X66082884Y-66629568D01*
X66600522Y-66561420D01*
X66760642Y-66518515D01*
X67243004Y-66318714D01*
X67386563Y-66235831D01*
X67800777Y-65917994D01*
X67917994Y-65800777D01*
X68235831Y-65386563D01*
X68318714Y-65243004D01*
X68518515Y-64760642D01*
X68561420Y-64600522D01*
X68629568Y-64082884D01*
X68635000Y-64000000D01*
X68635000Y-61000000D01*
X68629568Y-60917116D01*
X68561420Y-60399478D01*
X68518515Y-60239358D01*
X68318714Y-59756996D01*
X68270780Y-59673970D01*
X78385635Y-59673970D01*
X78545418Y-59992739D01*
X79336187Y-60302723D01*
X80185387Y-60286497D01*
X80894582Y-59992739D01*
X81054365Y-59673970D01*
X79720000Y-58339605D01*
X78385635Y-59673970D01*
X68270780Y-59673970D01*
X68235831Y-59613437D01*
X67917994Y-59199223D01*
X67800777Y-59082006D01*
X67386563Y-58764169D01*
X67243004Y-58681286D01*
X66760642Y-58481485D01*
X66600522Y-58438580D01*
X66082884Y-58370432D01*
X66000000Y-58365000D01*
X63041624Y-58365000D01*
X62648127Y-58313195D01*
X62320242Y-58177381D01*
X62038674Y-57961326D01*
X61822619Y-57679758D01*
X61686805Y-57351873D01*
X61650357Y-57075022D01*
X63304584Y-57075022D01*
X63525353Y-57445743D01*
X64497012Y-57839119D01*
X65545247Y-57830713D01*
X65676884Y-57776187D01*
X77577277Y-57776187D01*
X77593503Y-58625387D01*
X77887261Y-59334582D01*
X78206030Y-59494365D01*
X79540395Y-58160000D01*
X79899605Y-58160000D01*
X81233970Y-59494365D01*
X81552739Y-59334582D01*
X81862723Y-58543813D01*
X81846497Y-57694613D01*
X81552739Y-56985418D01*
X81233970Y-56825635D01*
X79899605Y-58160000D01*
X79540395Y-58160000D01*
X78206030Y-56825635D01*
X77887261Y-56985418D01*
X77577277Y-57776187D01*
X65676884Y-57776187D01*
X66474647Y-57445743D01*
X66695416Y-57075022D01*
X65000000Y-55379605D01*
X63304584Y-57075022D01*
X61650357Y-57075022D01*
X61635000Y-56958376D01*
X61635000Y-54697012D01*
X62360881Y-54697012D01*
X62369287Y-55745247D01*
X62754257Y-56674647D01*
X63124978Y-56895416D01*
X64820395Y-55200000D01*
X65179605Y-55200000D01*
X66875022Y-56895416D01*
X67245743Y-56674647D01*
X67257328Y-56646030D01*
X78385635Y-56646030D01*
X79720000Y-57980395D01*
X81054365Y-56646030D01*
X80894582Y-56327261D01*
X80103813Y-56017277D01*
X79254613Y-56033503D01*
X78545418Y-56327261D01*
X78385635Y-56646030D01*
X67257328Y-56646030D01*
X67639119Y-55702988D01*
X67630713Y-54654753D01*
X67245743Y-53725353D01*
X66875022Y-53504584D01*
X65179605Y-55200000D01*
X64820395Y-55200000D01*
X63124978Y-53504584D01*
X62754257Y-53725353D01*
X62360881Y-54697012D01*
X61635000Y-54697012D01*
X61635000Y-53541624D01*
X61663522Y-53324978D01*
X63304584Y-53324978D01*
X65000000Y-55020395D01*
X66695416Y-53324978D01*
X66474647Y-52954257D01*
X65502988Y-52560881D01*
X64454753Y-52569287D01*
X63525353Y-52954257D01*
X63304584Y-53324978D01*
X61663522Y-53324978D01*
X61686805Y-53148127D01*
X61822619Y-52820242D01*
X62038674Y-52538674D01*
X62320242Y-52322619D01*
X62648127Y-52186805D01*
X63041624Y-52135000D01*
X82399798Y-52135000D01*
X82561754Y-52296956D01*
X82561754Y-52296956D01*
G37*
X82561754Y-52296956D02*
X82792060Y-52748956D01*
X82873000Y-53259992D01*
X82873000Y-60990168D01*
X82782776Y-61569301D01*
X82525107Y-62084639D01*
X82115932Y-62504301D01*
X67635000Y-73365000D01*
X63041624Y-73365000D01*
X62648127Y-73313195D01*
X62320242Y-73177381D01*
X62038674Y-72961326D01*
X61822619Y-72679758D01*
X61686805Y-72351873D01*
X61676688Y-72275022D01*
X63304584Y-72275022D01*
X63525353Y-72645743D01*
X64497012Y-73039119D01*
X65545247Y-73030713D01*
X66474647Y-72645743D01*
X66695416Y-72275022D01*
X65000000Y-70579605D01*
X63304584Y-72275022D01*
X61676688Y-72275022D01*
X61635000Y-71958376D01*
X61635000Y-69897012D01*
X62360881Y-69897012D01*
X62369287Y-70945247D01*
X62754257Y-71874647D01*
X63124978Y-72095416D01*
X64820395Y-70400000D01*
X65179605Y-70400000D01*
X66875022Y-72095416D01*
X67245743Y-71874647D01*
X67639119Y-70902988D01*
X67630713Y-69854753D01*
X67245743Y-68925353D01*
X66875022Y-68704584D01*
X65179605Y-70400000D01*
X64820395Y-70400000D01*
X63124978Y-68704584D01*
X62754257Y-68925353D01*
X62360881Y-69897012D01*
X61635000Y-69897012D01*
X61635000Y-68524978D01*
X63304584Y-68524978D01*
X65000000Y-70220395D01*
X66695416Y-68524978D01*
X66474647Y-68154257D01*
X65502988Y-67760881D01*
X64454753Y-67769287D01*
X63525353Y-68154257D01*
X63304584Y-68524978D01*
X61635000Y-68524978D01*
X61635000Y-68041624D01*
X61686805Y-67648127D01*
X61822619Y-67320242D01*
X62038674Y-67038674D01*
X62320242Y-66822619D01*
X62648127Y-66686805D01*
X63041624Y-66635000D01*
X66000000Y-66635000D01*
X66082884Y-66629568D01*
X66600522Y-66561420D01*
X66760642Y-66518515D01*
X67243004Y-66318714D01*
X67386563Y-66235831D01*
X67800777Y-65917994D01*
X67917994Y-65800777D01*
X68235831Y-65386563D01*
X68318714Y-65243004D01*
X68518515Y-64760642D01*
X68561420Y-64600522D01*
X68629568Y-64082884D01*
X68635000Y-64000000D01*
X68635000Y-61000000D01*
X68629568Y-60917116D01*
X68561420Y-60399478D01*
X68518515Y-60239358D01*
X68318714Y-59756996D01*
X68270780Y-59673970D01*
X78385635Y-59673970D01*
X78545418Y-59992739D01*
X79336187Y-60302723D01*
X80185387Y-60286497D01*
X80894582Y-59992739D01*
X81054365Y-59673970D01*
X79720000Y-58339605D01*
X78385635Y-59673970D01*
X68270780Y-59673970D01*
X68235831Y-59613437D01*
X67917994Y-59199223D01*
X67800777Y-59082006D01*
X67386563Y-58764169D01*
X67243004Y-58681286D01*
X66760642Y-58481485D01*
X66600522Y-58438580D01*
X66082884Y-58370432D01*
X66000000Y-58365000D01*
X63041624Y-58365000D01*
X62648127Y-58313195D01*
X62320242Y-58177381D01*
X62038674Y-57961326D01*
X61822619Y-57679758D01*
X61686805Y-57351873D01*
X61650357Y-57075022D01*
X63304584Y-57075022D01*
X63525353Y-57445743D01*
X64497012Y-57839119D01*
X65545247Y-57830713D01*
X65676884Y-57776187D01*
X77577277Y-57776187D01*
X77593503Y-58625387D01*
X77887261Y-59334582D01*
X78206030Y-59494365D01*
X79540395Y-58160000D01*
X79899605Y-58160000D01*
X81233970Y-59494365D01*
X81552739Y-59334582D01*
X81862723Y-58543813D01*
X81846497Y-57694613D01*
X81552739Y-56985418D01*
X81233970Y-56825635D01*
X79899605Y-58160000D01*
X79540395Y-58160000D01*
X78206030Y-56825635D01*
X77887261Y-56985418D01*
X77577277Y-57776187D01*
X65676884Y-57776187D01*
X66474647Y-57445743D01*
X66695416Y-57075022D01*
X65000000Y-55379605D01*
X63304584Y-57075022D01*
X61650357Y-57075022D01*
X61635000Y-56958376D01*
X61635000Y-54697012D01*
X62360881Y-54697012D01*
X62369287Y-55745247D01*
X62754257Y-56674647D01*
X63124978Y-56895416D01*
X64820395Y-55200000D01*
X65179605Y-55200000D01*
X66875022Y-56895416D01*
X67245743Y-56674647D01*
X67257328Y-56646030D01*
X78385635Y-56646030D01*
X79720000Y-57980395D01*
X81054365Y-56646030D01*
X80894582Y-56327261D01*
X80103813Y-56017277D01*
X79254613Y-56033503D01*
X78545418Y-56327261D01*
X78385635Y-56646030D01*
X67257328Y-56646030D01*
X67639119Y-55702988D01*
X67630713Y-54654753D01*
X67245743Y-53725353D01*
X66875022Y-53504584D01*
X65179605Y-55200000D01*
X64820395Y-55200000D01*
X63124978Y-53504584D01*
X62754257Y-53725353D01*
X62360881Y-54697012D01*
X61635000Y-54697012D01*
X61635000Y-53541624D01*
X61663522Y-53324978D01*
X63304584Y-53324978D01*
X65000000Y-55020395D01*
X66695416Y-53324978D01*
X66474647Y-52954257D01*
X65502988Y-52560881D01*
X64454753Y-52569287D01*
X63525353Y-52954257D01*
X63304584Y-53324978D01*
X61663522Y-53324978D01*
X61686805Y-53148127D01*
X61822619Y-52820242D01*
X62038674Y-52538674D01*
X62320242Y-52322619D01*
X62648127Y-52186805D01*
X63041624Y-52135000D01*
X82399798Y-52135000D01*
X82561754Y-52296956D01*
G04 #@! TO.N,+15V*
G36*
X87290000Y-51333724D02*
X86991672Y-51373000D01*
X63000000Y-51373000D01*
X62983423Y-51374086D01*
X62465785Y-51442234D01*
X62433761Y-51450815D01*
X61951399Y-51650616D01*
X61922687Y-51667193D01*
X61508473Y-51985030D01*
X61485030Y-52008473D01*
X61167193Y-52422687D01*
X61150616Y-52451399D01*
X60950815Y-52933761D01*
X60942234Y-52965785D01*
X60874086Y-53483423D01*
X60873000Y-53500000D01*
X60873000Y-57000000D01*
X60874086Y-57016577D01*
X60942234Y-57534215D01*
X60950815Y-57566239D01*
X61150616Y-58048601D01*
X61167193Y-58077313D01*
X61485030Y-58491527D01*
X61508473Y-58514970D01*
X61922687Y-58832807D01*
X61951399Y-58849384D01*
X62433761Y-59049185D01*
X62465785Y-59057766D01*
X62983423Y-59125914D01*
X63000000Y-59127000D01*
X65991672Y-59127000D01*
X66484485Y-59191880D01*
X66935952Y-59378884D01*
X67323636Y-59676364D01*
X67621116Y-60064048D01*
X67808120Y-60515515D01*
X67873000Y-61008328D01*
X67873000Y-63991672D01*
X67808120Y-64484485D01*
X67621116Y-64935952D01*
X67323636Y-65323636D01*
X66935952Y-65621116D01*
X66484485Y-65808120D01*
X65991672Y-65873000D01*
X63000000Y-65873000D01*
X62983423Y-65874086D01*
X62465785Y-65942234D01*
X62433761Y-65950815D01*
X61951399Y-66150616D01*
X61922687Y-66167193D01*
X61508473Y-66485030D01*
X61485030Y-66508473D01*
X61167193Y-66922687D01*
X61150616Y-66951399D01*
X60950815Y-67433761D01*
X60942234Y-67465785D01*
X60874086Y-67983423D01*
X60873000Y-68000000D01*
X60873000Y-72000000D01*
X60874086Y-72016577D01*
X60942234Y-72534215D01*
X60950815Y-72566239D01*
X61150616Y-73048601D01*
X61167193Y-73077313D01*
X61485030Y-73491527D01*
X61508473Y-73514970D01*
X61922687Y-73832807D01*
X61951399Y-73849384D01*
X62433761Y-74049185D01*
X62465785Y-74057766D01*
X62983423Y-74125914D01*
X63000000Y-74127000D01*
X67991672Y-74127000D01*
X68484485Y-74191880D01*
X68935952Y-74378884D01*
X69323636Y-74676364D01*
X69621116Y-75064048D01*
X69808120Y-75515515D01*
X69873000Y-76008328D01*
X69873000Y-80991672D01*
X69808120Y-81484485D01*
X69621116Y-81935952D01*
X69323636Y-82323636D01*
X68935952Y-82621116D01*
X68484485Y-82808120D01*
X67991672Y-82873000D01*
X60000000Y-82873000D01*
X59983423Y-82874086D01*
X59465785Y-82942234D01*
X59433761Y-82950815D01*
X58951399Y-83150616D01*
X58922687Y-83167193D01*
X58508473Y-83485030D01*
X58485030Y-83508473D01*
X58167193Y-83922687D01*
X58150616Y-83951399D01*
X57950815Y-84433761D01*
X57942234Y-84465785D01*
X57874086Y-84983423D01*
X57873000Y-85000000D01*
X57873000Y-85608586D01*
X57652532Y-85527073D01*
X56679605Y-86500000D01*
X56693748Y-86514143D01*
X56514143Y-86693748D01*
X56500000Y-86679605D01*
X56485858Y-86693748D01*
X56306253Y-86514143D01*
X56320395Y-86500000D01*
X55347468Y-85527073D01*
X55127000Y-85608586D01*
X55127000Y-85347468D01*
X55527073Y-85347468D01*
X56500000Y-86320395D01*
X57472927Y-85347468D01*
X57374264Y-85080613D01*
X56764539Y-84854092D01*
X56114540Y-84878144D01*
X55625736Y-85080613D01*
X55527073Y-85347468D01*
X55127000Y-85347468D01*
X55127000Y-79875022D01*
X63304584Y-79875022D01*
X63525353Y-80245743D01*
X64497012Y-80639119D01*
X65545247Y-80630713D01*
X66474647Y-80245743D01*
X66695416Y-79875022D01*
X65000000Y-78179605D01*
X63304584Y-79875022D01*
X55127000Y-79875022D01*
X55127000Y-77497012D01*
X62360881Y-77497012D01*
X62369287Y-78545247D01*
X62754257Y-79474647D01*
X63124978Y-79695416D01*
X64820395Y-78000000D01*
X65179605Y-78000000D01*
X66875022Y-79695416D01*
X67245743Y-79474647D01*
X67639119Y-78502988D01*
X67630713Y-77454753D01*
X67245743Y-76525353D01*
X66875022Y-76304584D01*
X65179605Y-78000000D01*
X64820395Y-78000000D01*
X63124978Y-76304584D01*
X62754257Y-76525353D01*
X62360881Y-77497012D01*
X55127000Y-77497012D01*
X55127000Y-76124978D01*
X63304584Y-76124978D01*
X65000000Y-77820395D01*
X66695416Y-76124978D01*
X66474647Y-75754257D01*
X65502988Y-75360881D01*
X64454753Y-75369287D01*
X63525353Y-75754257D01*
X63304584Y-76124978D01*
X55127000Y-76124978D01*
X55127000Y-64575022D01*
X63304584Y-64575022D01*
X63525353Y-64945743D01*
X64497012Y-65339119D01*
X65545247Y-65330713D01*
X66474647Y-64945743D01*
X66695416Y-64575022D01*
X65000000Y-62879605D01*
X63304584Y-64575022D01*
X55127000Y-64575022D01*
X55127000Y-62197012D01*
X62360881Y-62197012D01*
X62369287Y-63245247D01*
X62754257Y-64174647D01*
X63124978Y-64395416D01*
X64820395Y-62700000D01*
X65179605Y-62700000D01*
X66875022Y-64395416D01*
X67245743Y-64174647D01*
X67639119Y-63202988D01*
X67630713Y-62154753D01*
X67245743Y-61225353D01*
X66875022Y-61004584D01*
X65179605Y-62700000D01*
X64820395Y-62700000D01*
X63124978Y-61004584D01*
X62754257Y-61225353D01*
X62360881Y-62197012D01*
X55127000Y-62197012D01*
X55127000Y-60824978D01*
X63304584Y-60824978D01*
X65000000Y-62520395D01*
X66695416Y-60824978D01*
X66474647Y-60454257D01*
X65502988Y-60060881D01*
X64454753Y-60069287D01*
X63525353Y-60454257D01*
X63304584Y-60824978D01*
X55127000Y-60824978D01*
X55127000Y-47075866D01*
X62365000Y-47075866D01*
X62365000Y-48124134D01*
X62766155Y-49092608D01*
X63507392Y-49833845D01*
X64475866Y-50235000D01*
X65524134Y-50235000D01*
X66492608Y-49833845D01*
X66812483Y-49513970D01*
X78385635Y-49513970D01*
X78545418Y-49832739D01*
X79336187Y-50142723D01*
X80185387Y-50126497D01*
X80894582Y-49832739D01*
X81054365Y-49513970D01*
X79720000Y-48179605D01*
X78385635Y-49513970D01*
X66812483Y-49513970D01*
X67233845Y-49092608D01*
X67635000Y-48124134D01*
X67635000Y-47616187D01*
X77577277Y-47616187D01*
X77593503Y-48465387D01*
X77887261Y-49174582D01*
X78206030Y-49334365D01*
X79540395Y-48000000D01*
X79899605Y-48000000D01*
X81233970Y-49334365D01*
X81552739Y-49174582D01*
X81862723Y-48383813D01*
X81846497Y-47534613D01*
X81552739Y-46825418D01*
X81233970Y-46665635D01*
X79899605Y-48000000D01*
X79540395Y-48000000D01*
X78206030Y-46665635D01*
X77887261Y-46825418D01*
X77577277Y-47616187D01*
X67635000Y-47616187D01*
X67635000Y-47075866D01*
X67390682Y-46486030D01*
X78385635Y-46486030D01*
X79720000Y-47820395D01*
X81054365Y-46486030D01*
X80894582Y-46167261D01*
X80103813Y-45857277D01*
X79254613Y-45873503D01*
X78545418Y-46167261D01*
X78385635Y-46486030D01*
X67390682Y-46486030D01*
X67233845Y-46107392D01*
X66492608Y-45366155D01*
X65524134Y-44965000D01*
X64475866Y-44965000D01*
X63507392Y-45366155D01*
X62766155Y-46107392D01*
X62365000Y-47075866D01*
X55127000Y-47075866D01*
X55127000Y-45008328D01*
X55166276Y-44710000D01*
X87290000Y-44710000D01*
X87290000Y-51333724D01*
X87290000Y-51333724D01*
G37*
X87290000Y-51333724D02*
X86991672Y-51373000D01*
X63000000Y-51373000D01*
X62983423Y-51374086D01*
X62465785Y-51442234D01*
X62433761Y-51450815D01*
X61951399Y-51650616D01*
X61922687Y-51667193D01*
X61508473Y-51985030D01*
X61485030Y-52008473D01*
X61167193Y-52422687D01*
X61150616Y-52451399D01*
X60950815Y-52933761D01*
X60942234Y-52965785D01*
X60874086Y-53483423D01*
X60873000Y-53500000D01*
X60873000Y-57000000D01*
X60874086Y-57016577D01*
X60942234Y-57534215D01*
X60950815Y-57566239D01*
X61150616Y-58048601D01*
X61167193Y-58077313D01*
X61485030Y-58491527D01*
X61508473Y-58514970D01*
X61922687Y-58832807D01*
X61951399Y-58849384D01*
X62433761Y-59049185D01*
X62465785Y-59057766D01*
X62983423Y-59125914D01*
X63000000Y-59127000D01*
X65991672Y-59127000D01*
X66484485Y-59191880D01*
X66935952Y-59378884D01*
X67323636Y-59676364D01*
X67621116Y-60064048D01*
X67808120Y-60515515D01*
X67873000Y-61008328D01*
X67873000Y-63991672D01*
X67808120Y-64484485D01*
X67621116Y-64935952D01*
X67323636Y-65323636D01*
X66935952Y-65621116D01*
X66484485Y-65808120D01*
X65991672Y-65873000D01*
X63000000Y-65873000D01*
X62983423Y-65874086D01*
X62465785Y-65942234D01*
X62433761Y-65950815D01*
X61951399Y-66150616D01*
X61922687Y-66167193D01*
X61508473Y-66485030D01*
X61485030Y-66508473D01*
X61167193Y-66922687D01*
X61150616Y-66951399D01*
X60950815Y-67433761D01*
X60942234Y-67465785D01*
X60874086Y-67983423D01*
X60873000Y-68000000D01*
X60873000Y-72000000D01*
X60874086Y-72016577D01*
X60942234Y-72534215D01*
X60950815Y-72566239D01*
X61150616Y-73048601D01*
X61167193Y-73077313D01*
X61485030Y-73491527D01*
X61508473Y-73514970D01*
X61922687Y-73832807D01*
X61951399Y-73849384D01*
X62433761Y-74049185D01*
X62465785Y-74057766D01*
X62983423Y-74125914D01*
X63000000Y-74127000D01*
X67991672Y-74127000D01*
X68484485Y-74191880D01*
X68935952Y-74378884D01*
X69323636Y-74676364D01*
X69621116Y-75064048D01*
X69808120Y-75515515D01*
X69873000Y-76008328D01*
X69873000Y-80991672D01*
X69808120Y-81484485D01*
X69621116Y-81935952D01*
X69323636Y-82323636D01*
X68935952Y-82621116D01*
X68484485Y-82808120D01*
X67991672Y-82873000D01*
X60000000Y-82873000D01*
X59983423Y-82874086D01*
X59465785Y-82942234D01*
X59433761Y-82950815D01*
X58951399Y-83150616D01*
X58922687Y-83167193D01*
X58508473Y-83485030D01*
X58485030Y-83508473D01*
X58167193Y-83922687D01*
X58150616Y-83951399D01*
X57950815Y-84433761D01*
X57942234Y-84465785D01*
X57874086Y-84983423D01*
X57873000Y-85000000D01*
X57873000Y-85608586D01*
X57652532Y-85527073D01*
X56679605Y-86500000D01*
X56693748Y-86514143D01*
X56514143Y-86693748D01*
X56500000Y-86679605D01*
X56485858Y-86693748D01*
X56306253Y-86514143D01*
X56320395Y-86500000D01*
X55347468Y-85527073D01*
X55127000Y-85608586D01*
X55127000Y-85347468D01*
X55527073Y-85347468D01*
X56500000Y-86320395D01*
X57472927Y-85347468D01*
X57374264Y-85080613D01*
X56764539Y-84854092D01*
X56114540Y-84878144D01*
X55625736Y-85080613D01*
X55527073Y-85347468D01*
X55127000Y-85347468D01*
X55127000Y-79875022D01*
X63304584Y-79875022D01*
X63525353Y-80245743D01*
X64497012Y-80639119D01*
X65545247Y-80630713D01*
X66474647Y-80245743D01*
X66695416Y-79875022D01*
X65000000Y-78179605D01*
X63304584Y-79875022D01*
X55127000Y-79875022D01*
X55127000Y-77497012D01*
X62360881Y-77497012D01*
X62369287Y-78545247D01*
X62754257Y-79474647D01*
X63124978Y-79695416D01*
X64820395Y-78000000D01*
X65179605Y-78000000D01*
X66875022Y-79695416D01*
X67245743Y-79474647D01*
X67639119Y-78502988D01*
X67630713Y-77454753D01*
X67245743Y-76525353D01*
X66875022Y-76304584D01*
X65179605Y-78000000D01*
X64820395Y-78000000D01*
X63124978Y-76304584D01*
X62754257Y-76525353D01*
X62360881Y-77497012D01*
X55127000Y-77497012D01*
X55127000Y-76124978D01*
X63304584Y-76124978D01*
X65000000Y-77820395D01*
X66695416Y-76124978D01*
X66474647Y-75754257D01*
X65502988Y-75360881D01*
X64454753Y-75369287D01*
X63525353Y-75754257D01*
X63304584Y-76124978D01*
X55127000Y-76124978D01*
X55127000Y-64575022D01*
X63304584Y-64575022D01*
X63525353Y-64945743D01*
X64497012Y-65339119D01*
X65545247Y-65330713D01*
X66474647Y-64945743D01*
X66695416Y-64575022D01*
X65000000Y-62879605D01*
X63304584Y-64575022D01*
X55127000Y-64575022D01*
X55127000Y-62197012D01*
X62360881Y-62197012D01*
X62369287Y-63245247D01*
X62754257Y-64174647D01*
X63124978Y-64395416D01*
X64820395Y-62700000D01*
X65179605Y-62700000D01*
X66875022Y-64395416D01*
X67245743Y-64174647D01*
X67639119Y-63202988D01*
X67630713Y-62154753D01*
X67245743Y-61225353D01*
X66875022Y-61004584D01*
X65179605Y-62700000D01*
X64820395Y-62700000D01*
X63124978Y-61004584D01*
X62754257Y-61225353D01*
X62360881Y-62197012D01*
X55127000Y-62197012D01*
X55127000Y-60824978D01*
X63304584Y-60824978D01*
X65000000Y-62520395D01*
X66695416Y-60824978D01*
X66474647Y-60454257D01*
X65502988Y-60060881D01*
X64454753Y-60069287D01*
X63525353Y-60454257D01*
X63304584Y-60824978D01*
X55127000Y-60824978D01*
X55127000Y-47075866D01*
X62365000Y-47075866D01*
X62365000Y-48124134D01*
X62766155Y-49092608D01*
X63507392Y-49833845D01*
X64475866Y-50235000D01*
X65524134Y-50235000D01*
X66492608Y-49833845D01*
X66812483Y-49513970D01*
X78385635Y-49513970D01*
X78545418Y-49832739D01*
X79336187Y-50142723D01*
X80185387Y-50126497D01*
X80894582Y-49832739D01*
X81054365Y-49513970D01*
X79720000Y-48179605D01*
X78385635Y-49513970D01*
X66812483Y-49513970D01*
X67233845Y-49092608D01*
X67635000Y-48124134D01*
X67635000Y-47616187D01*
X77577277Y-47616187D01*
X77593503Y-48465387D01*
X77887261Y-49174582D01*
X78206030Y-49334365D01*
X79540395Y-48000000D01*
X79899605Y-48000000D01*
X81233970Y-49334365D01*
X81552739Y-49174582D01*
X81862723Y-48383813D01*
X81846497Y-47534613D01*
X81552739Y-46825418D01*
X81233970Y-46665635D01*
X79899605Y-48000000D01*
X79540395Y-48000000D01*
X78206030Y-46665635D01*
X77887261Y-46825418D01*
X77577277Y-47616187D01*
X67635000Y-47616187D01*
X67635000Y-47075866D01*
X67390682Y-46486030D01*
X78385635Y-46486030D01*
X79720000Y-47820395D01*
X81054365Y-46486030D01*
X80894582Y-46167261D01*
X80103813Y-45857277D01*
X79254613Y-45873503D01*
X78545418Y-46167261D01*
X78385635Y-46486030D01*
X67390682Y-46486030D01*
X67233845Y-46107392D01*
X66492608Y-45366155D01*
X65524134Y-44965000D01*
X64475866Y-44965000D01*
X63507392Y-45366155D01*
X62766155Y-46107392D01*
X62365000Y-47075866D01*
X55127000Y-47075866D01*
X55127000Y-45008328D01*
X55166276Y-44710000D01*
X87290000Y-44710000D01*
X87290000Y-51333724D01*
G04 #@! TD*
M02*
