<?xml version="1.0" standalone="no"?>
 <!DOCTYPE svg PUBLIC "-//W3C//DTD SVG 1.1//EN" 
 "http://www.w3.org/Graphics/SVG/1.1/DTD/svg11.dtd"> 
<svg xmlns="http://www.w3.org/2000/svg" version="1.1" 
    width="5.99948cm" height="4.70916cm" viewBox="0 0 23620 18540 ">
<title>SVG Picture created as Keithley_177_power_repair-brd.svg date 2019/01/19 15:19:09 </title>
  <desc>Picture generated by PCBNEW </desc>
<g style="fill:#000000; fill-opacity:1;stroke:#000000; stroke-opacity:1;
stroke-linecap:round; stroke-linejoin:round; "
 transform="translate(0 0) scale(1 1)">
</g>
<g style="fill:#000000; fill-opacity:0.0; 
stroke:#000000; stroke-width:-0.000393701; stroke-opacity:1; 
stroke-linecap:round; stroke-linejoin:round;">
</g>
<g style="fill:#000000; fill-opacity:1.0; 
stroke:#000000; stroke-width:0; stroke-opacity:1; 
stroke-linecap:round; stroke-linejoin:round;">
<circle cx="3651.5" cy="1968.5" r="590.551" /> 
</g>
<g style="fill:#000000; fill-opacity:1.0; 
stroke:#000000; stroke-width:39.3701; stroke-opacity:1; 
stroke-linecap:round; stroke-linejoin:round;">
</g>
<g style="fill:#000000; fill-opacity:1.0; 
stroke:#000000; stroke-width:0; stroke-opacity:1; 
stroke-linecap:round; stroke-linejoin:round;">
<circle cx="3651.5" cy="5968.5" r="590.551" /> 
</g>
<g style="fill:#000000; fill-opacity:1.0; 
stroke:#000000; stroke-width:39.3701; stroke-opacity:1; 
stroke-linecap:round; stroke-linejoin:round;">
</g>
<g style="fill:#000000; fill-opacity:1.0; 
stroke:#000000; stroke-width:0; stroke-opacity:1; 
stroke-linecap:round; stroke-linejoin:round;">
<circle cx="3651.5" cy="9968.5" r="590.551" /> 
</g>
<g style="fill:#000000; fill-opacity:1.0; 
stroke:#000000; stroke-width:39.3701; stroke-opacity:1; 
stroke-linecap:round; stroke-linejoin:round;">
</g>
<g style="fill:#000000; fill-opacity:1.0; 
stroke:#000000; stroke-width:0; stroke-opacity:1; 
stroke-linecap:round; stroke-linejoin:round;">
<circle cx="21651.5" cy="9968.5" r="590.551" /> 
</g>
<g style="fill:#000000; fill-opacity:1.0; 
stroke:#000000; stroke-width:39.3701; stroke-opacity:1; 
stroke-linecap:round; stroke-linejoin:round;">
</g>
<g style="fill:#000000; fill-opacity:1.0; 
stroke:#000000; stroke-width:0; stroke-opacity:1; 
stroke-linecap:round; stroke-linejoin:round;">
<polyline style="fill-rule:evenodd;"
points="22242,2559
22242,1377
21060,1377
21060,2559
22242,2559
" /> 
<circle cx="12793.2" cy="17126" r="393.701" /> 
</g>
<g style="fill:#000000; fill-opacity:1.0; 
stroke:#000000; stroke-width:39.3701; stroke-opacity:1; 
stroke-linecap:round; stroke-linejoin:round;">
</g>
<g style="fill:#000000; fill-opacity:1.0; 
stroke:#000000; stroke-width:0; stroke-opacity:1; 
stroke-linecap:round; stroke-linejoin:round;">
<circle cx="8462.52" cy="17126" r="393.701" /> 
</g>
<g style="fill:#000000; fill-opacity:1.0; 
stroke:#000000; stroke-width:39.3701; stroke-opacity:1; 
stroke-linecap:round; stroke-linejoin:round;">
</g>
<g style="fill:#000000; fill-opacity:1.0; 
stroke:#000000; stroke-width:0; stroke-opacity:1; 
stroke-linecap:round; stroke-linejoin:round;">
<circle cx="1277.48" cy="9960.63" r="393.701" /> 
</g>
<g style="fill:#000000; fill-opacity:1.0; 
stroke:#000000; stroke-width:39.3701; stroke-opacity:1; 
stroke-linecap:round; stroke-linejoin:round;">
</g>
<g style="fill:#000000; fill-opacity:1.0; 
stroke:#000000; stroke-width:0; stroke-opacity:1; 
stroke-linecap:round; stroke-linejoin:round;">
<circle cx="21100.3" cy="13740.2" r="787.402" /> 
</g>
<g style="fill:#000000; fill-opacity:1.0; 
stroke:#000000; stroke-width:39.3701; stroke-opacity:1; 
stroke-linecap:round; stroke-linejoin:round;">
</g>
<g style="fill:#000000; fill-opacity:1.0; 
stroke:#000000; stroke-width:0; stroke-opacity:1; 
stroke-linecap:round; stroke-linejoin:round;">
<circle cx="21100.3" cy="4842.52" r="787.402" /> 
</g>
<g style="fill:#000000; fill-opacity:1.0; 
stroke:#000000; stroke-width:39.3701; stroke-opacity:1; 
stroke-linecap:round; stroke-linejoin:round;">
</g>
<g style="fill:#000000; fill-opacity:1.0; 
stroke:#000000; stroke-width:0; stroke-opacity:1; 
stroke-linecap:round; stroke-linejoin:round;">
<circle cx="9446.77" cy="1811.02" r="787.402" /> 
</g>
<g style="fill:#000000; fill-opacity:1.0; 
stroke:#000000; stroke-width:39.3701; stroke-opacity:1; 
stroke-linecap:round; stroke-linejoin:round;">
</g>
<g style="fill:#000000; fill-opacity:1.0; 
stroke:#000000; stroke-width:0; stroke-opacity:1; 
stroke-linecap:round; stroke-linejoin:round;">
<circle cx="9446.77" cy="4803.15" r="787.402" /> 
</g>
<g style="fill:#000000; fill-opacity:1.0; 
stroke:#000000; stroke-width:39.3701; stroke-opacity:1; 
stroke-linecap:round; stroke-linejoin:round;">
</g>
<g style="fill:#000000; fill-opacity:1.0; 
stroke:#000000; stroke-width:0; stroke-opacity:1; 
stroke-linecap:round; stroke-linejoin:round;">
<circle cx="9446.77" cy="7755.91" r="787.402" /> 
</g>
<g style="fill:#000000; fill-opacity:1.0; 
stroke:#000000; stroke-width:39.3701; stroke-opacity:1; 
stroke-linecap:round; stroke-linejoin:round;">
</g>
<g style="fill:#000000; fill-opacity:1.0; 
stroke:#000000; stroke-width:0; stroke-opacity:1; 
stroke-linecap:round; stroke-linejoin:round;">
<circle cx="9446.77" cy="10787.4" r="787.402" /> 
</g>
<g style="fill:#000000; fill-opacity:1.0; 
stroke:#000000; stroke-width:39.3701; stroke-opacity:1; 
stroke-linecap:round; stroke-linejoin:round;">
</g>
<g style="fill:#000000; fill-opacity:1.0; 
stroke:#000000; stroke-width:0; stroke-opacity:1; 
stroke-linecap:round; stroke-linejoin:round;">
<circle cx="9446.77" cy="13779.5" r="787.402" /> 
</g>
<g style="fill:#000000; fill-opacity:1.0; 
stroke:#000000; stroke-width:39.3701; stroke-opacity:1; 
stroke-linecap:round; stroke-linejoin:round;">
</g>
<g style="fill:#000000; fill-opacity:1.0; 
stroke:#000000; stroke-width:0; stroke-opacity:1; 
stroke-linecap:round; stroke-linejoin:round;">
<polyline style="fill-rule:evenodd;"
points="3639,14901
3639,15807
4230,15807
4230,14901
3639,14901
" /> 
</g>
<g style="fill:#000000; fill-opacity:1.0; 
stroke:#000000; stroke-width:590.551; stroke-opacity:1; 
stroke-linecap:round; stroke-linejoin:round;">
</g>
<g style="fill:#000000; fill-opacity:0.0; 
stroke:#000000; stroke-width:590.551; stroke-opacity:1; 
stroke-linecap:round; stroke-linejoin:round;">
<path d="M4934 15511
L4934 15196
" />
<path d="M5934 15511
L5934 15196
" />
</g>
<g style="fill:#000000; fill-opacity:1.0; 
stroke:#000000; stroke-width:0; stroke-opacity:1; 
stroke-linecap:round; stroke-linejoin:round;">
<circle cx="2675.12" cy="13779.5" r="610.236" /> 
</g>
<g style="fill:#000000; fill-opacity:1.0; 
stroke:#000000; stroke-width:39.3701; stroke-opacity:1; 
stroke-linecap:round; stroke-linejoin:round;">
</g>
<g style="fill:#000000; fill-opacity:1.0; 
stroke:#000000; stroke-width:0; stroke-opacity:1; 
stroke-linecap:round; stroke-linejoin:round;">
<circle cx="1651.5" cy="12775.6" r="610.236" /> 
</g>
<g style="fill:#000000; fill-opacity:1.0; 
stroke:#000000; stroke-width:39.3701; stroke-opacity:1; 
stroke-linecap:round; stroke-linejoin:round;">
</g>
<g style="fill:#000000; fill-opacity:1.0; 
stroke:#000000; stroke-width:0; stroke-opacity:1; 
stroke-linecap:round; stroke-linejoin:round;">
<circle cx="2675.12" cy="11771.7" r="610.236" /> 
</g>
<g style="fill:#000000; fill-opacity:1.0; 
stroke:#000000; stroke-width:39.3701; stroke-opacity:1; 
stroke-linecap:round; stroke-linejoin:round;">
</g>
<g style="fill:#000000; fill-opacity:1.0; 
stroke:#000000; stroke-width:314.961; stroke-opacity:1; 
stroke-linecap:round; stroke-linejoin:round;">
</g>
<g style="fill:#000000; fill-opacity:0.0; 
stroke:#000000; stroke-width:314.961; stroke-opacity:1; 
stroke-linecap:round; stroke-linejoin:round;">
<path d="M1285 9968
L1277 9960
" />
<path d="M3651 9968
L1285 9968
" />
</g>
<g style="fill:#000000; fill-opacity:0.0; 
stroke:#000000; stroke-width:787.402; stroke-opacity:1; 
stroke-linecap:round; stroke-linejoin:round;">
<path d="M3651 1968
L3659 1968
" />
<path d="M9446 7755
L10352 7755
" />
</g>
<g style="fill:#000000; fill-opacity:0.0; 
stroke:#000000; stroke-width:590.551; stroke-opacity:1; 
stroke-linecap:round; stroke-linejoin:round;">
<path d="M3934 15039
L2675 13779
" />
<path d="M3934 15354
L3934 15039
" />
<path d="M4934 15354
L4934 13204
" />
<path d="M4505 12775
L1651 12775
" />
<path d="M4934 13204
L4505 12775
" />
<path d="M5934 15354
L5934 12236
" />
<path d="M5470 11771
L2675 11771
" />
<path d="M5934 12236
L5470 11771
" />
</g>
<g style="fill:#000000; fill-opacity:0.0; 
stroke:#000000; stroke-width:314.961; stroke-opacity:1; 
stroke-linecap:round; stroke-linejoin:round;">
<path d="M8462 17125
L6415 17125
" />
<path d="M5934 16645
L5934 15354
" />
<path d="M6415 17125
L5934 16645
" />
</g>
<g style="fill:#000000; fill-opacity:1.0; 
stroke:#000000; stroke-width:100; stroke-opacity:1; 
stroke-linecap:round; stroke-linejoin:round;">
<polyline style="fill-rule:evenodd;"
points="19732,5508
19758,5702
19832,5880
19949,6032
20064,6121
22654,6121
22654,5580
21767,5580
21680,5726
21298,5881
20885,5878
20519,5726
20432,5580
21100,4913
21767,5580
22654,5580
22654,4644
22139,4644
22136,5057
21984,5423
21838,5510
21171,4842
21029,4842
20362,5510
20216,5423
20061,5040
20064,4627
20216,4261
20362,4175
21029,4842
21171,4842
21838,4175
21984,4261
22139,4644
22654,4644
22654,4104
21767,4104
21100,4771
20432,4104
20519,3958
20902,3803
21314,3806
21680,3958
21767,4104
22654,4104
22654,2081
22492,2081
22492,2608
22453,2700
22383,2770
22291,2809
21763,2809
21701,2746
21701,2018
21601,2018
21601,2746
21538,2809
21011,2809
20919,2770
20849,2700
20810,2608
20810,2081
20873,2018
21601,2018
21701,2018
22429,2018
22492,2081
22654,2081
22654,1328
22492,1328
22492,1856
22429,1918
21701,1918
21701,1190
21601,1190
21601,1918
20873,1918
20810,1856
20810,1328
20849,1236
20919,1166
21011,1127
21538,1127
21601,1190
21701,1190
21763,1127
22291,1127
22383,1166
22453,1236
22492,1328
22654,1328
22654,965
19732,965
19732,5508
" /> 
<polyline style="fill-rule:evenodd;"
points="20279,8736
20101,8810
19949,8927
19832,9080
19758,9258
19732,9452
19732,14563
19758,14757
19832,14935
19949,15088
20101,15205
20279,15278
20473,15304
22829,15304
22946,15288
22946,14478
21767,14478
21680,14624
21298,14779
20885,14775
20519,14624
20432,14478
21100,13810
21767,14478
22946,14478
22946,13542
22139,13542
22136,13954
21984,14320
21838,14407
21171,13740
21029,13740
20362,14407
20216,14320
20061,13938
20064,13525
20216,13159
20362,13072
21029,13740
21171,13740
21838,13072
21984,13159
22139,13542
22946,13542
22946,13001
21767,13001
21100,13669
20432,13001
20519,12856
20902,12701
21314,12704
21680,12856
21767,13001
22946,13001
22946,10564
22176,10564
22113,10690
21802,10812
21468,10805
21189,10690
21126,10564
21651,10039
22176,10564
22946,10564
22946,9817
22495,9817
22488,10151
22373,10430
22247,10493
21722,9968
21580,9968
21055,10493
20929,10430
20807,10119
20814,9785
20929,9506
21055,9443
21580,9968
21722,9968
22247,9443
22373,9506
22495,9817
22946,9817
22946,9372
22176,9372
21651,9897
21126,9372
21189,9246
21500,9124
21834,9131
22113,9246
22176,9372
22946,9372
22946,8726
22829,8711
20473,8711
20279,8736
" /> 
<polyline style="fill-rule:evenodd;"
points="2532,3660
2442,3838
2410,4039
2410,7082
2445,7310
2547,7513
2708,7678
8409,11954
10217,11954
10372,11934
10501,11880
10612,11795
10697,11684
10751,11555
10755,11525
10114,11525
10027,11671
9644,11826
9232,11823
8866,11671
8779,11525
9446,10858
10114,11525
10755,11525
10771,11400
10771,10589
10485,10589
10482,11002
10330,11367
10184,11454
9517,10787
9376,10787
8708,11454
8562,11367
8407,10985
8411,10572
8562,10206
8708,10119
9376,10787
9517,10787
10184,10119
10330,10206
10485,10589
10771,10589
10771,10049
10114,10049
9446,10716
8779,10049
8866,9903
9248,9748
9661,9751
10027,9903
10114,10049
10771,10049
10771,9858
10751,9703
10697,9574
10612,9464
10501,9378
10372,9325
10217,9305
9053,9305
9020,9302
8816,9276
8753,9259
8563,9180
8507,9147
8344,9022
8297,8976
8172,8813
8140,8757
8061,8567
8044,8504
8017,8300
8015,8267
8015,7086
8017,7053
8044,6850
8061,6787
8140,6597
8159,6564
4176,6564
4113,6690
3802,6812
3468,6805
3189,6690
3126,6564
3651,6039
4176,6564
8159,6564
8172,6540
8297,6377
8344,6331
8507,6206
8563,6173
8753,6095
8816,6078
9020,6051
9053,6049
10217,6049
10372,6028
10501,5975
10612,5890
10697,5779
10751,5650
10765,5541
10114,5541
10027,5687
9644,5842
9232,5838
9180,5817
4495,5817
4488,6151
4373,6430
4247,6493
3722,5968
3580,5968
3055,6493
2929,6430
2807,6119
2814,5785
2929,5506
3055,5443
3580,5968
3722,5968
4247,5443
4373,5506
4495,5817
9180,5817
8866,5687
8779,5541
9446,4873
10114,5541
10765,5541
10771,5495
10771,4605
10485,4605
10482,5017
10330,5383
10184,5470
9517,4803
9376,4803
8708,5470
8562,5383
8558,5372
4176,5372
3651,5897
3126,5372
3189,5246
3500,5124
3834,5131
4113,5246
4176,5372
8558,5372
8407,5001
8411,4588
8562,4222
8708,4135
9376,4803
9517,4803
10184,4135
10330,4222
10485,4605
10771,4605
10771,4150
10760,4064
10114,4064
9446,4732
8779,4064
8866,3918
9248,3764
9661,3767
10027,3918
10114,4064
10760,4064
10751,3995
10697,3866
10612,3755
10501,3670
10372,3616
10217,3596
2596,3596
2532,3660
" /> 
<polyline style="fill-rule:evenodd;"
points="671,3280
788,3296
10234,3296
10240,3296
10444,3323
10457,3327
10647,3405
10658,3412
10821,3537
10830,3546
10955,3709
10962,3721
11040,3910
11044,3923
11071,4127
11071,4133
11071,5511
11071,5518
11044,5722
11040,5734
10962,5924
10955,5935
10830,6099
10821,6108
10658,6233
10647,6239
10457,6318
10444,6321
10240,6348
10234,6349
9056,6349
8862,6374
8684,6448
8531,6565
8414,6718
8341,6895
8315,7089
8315,8264
8341,8458
8414,8636
8531,8788
8684,8905
8862,8979
9056,9005
10234,9005
10240,9005
10444,9032
10457,9035
10647,9114
10658,9120
10821,9246
10830,9255
10955,9418
10962,9429
11040,9619
11044,9632
11071,9835
11071,9842
11071,11417
11071,11423
11044,11627
11040,11640
10962,11830
10955,11841
10830,12004
10821,12013
10658,12138
10647,12145
10457,12224
10444,12227
10240,12254
10234,12254
8268,12254
8074,12280
7897,12353
7744,12471
7627,12623
7553,12801
7528,12995
7528,14957
7553,15151
7627,15329
7744,15481
7897,15598
8074,15672
8268,15698
11415,15698
11421,15698
11625,15725
11638,15728
11828,15807
11839,15813
12002,15938
12011,15948
12136,16111
12143,16122
12222,16312
12225,16325
12252,16528
12252,16535
12252,16775
12339,16742
12722,17125
12716,17131
12787,17202
12793,17196
12798,17202
12869,17131
12863,17125
13246,16742
13333,16775
13333,16672
13176,16672
12793,17055
12410,16672
12449,16567
12689,16477
12944,16487
13137,16567
13176,16672
13333,16672
13333,14517
10114,14517
10027,14663
9644,14818
9232,14815
8866,14663
8779,14517
9446,13850
10114,14517
13333,14517
13333,13581
10485,13581
10482,13994
10330,14360
10184,14447
9517,13779
9376,13779
8708,14447
8562,14360
8407,13977
8411,13564
8562,13198
8708,13112
9376,13779
9517,13779
10184,13112
10330,13198
10485,13581
13333,13581
13333,13041
10114,13041
9446,13708
8779,13041
8866,12895
9248,12740
9661,12743
10027,12895
10114,13041
13333,13041
13333,8494
10114,8494
10027,8640
9644,8794
9232,8791
8866,8640
8779,8494
9446,7826
10114,8494
13333,8494
13333,7557
10485,7557
10482,7970
10330,8336
10184,8423
9517,7755
9376,7755
8708,8423
8562,8336
8407,7953
8411,7541
8562,7175
8708,7088
9376,7755
9517,7755
10184,7088
10330,7175
10485,7557
13333,7557
13333,7017
10114,7017
9446,7685
8779,7017
8866,6871
9248,6716
9661,6720
10027,6871
10114,7017
13333,7017
13333,1604
10484,1604
10484,2017
10326,2398
10034,2690
9653,2848
9240,2848
8859,2690
8733,2564
4176,2564
4113,2690
3802,2812
3468,2805
3189,2690
3126,2564
3651,2039
4176,2564
8733,2564
8567,2398
8409,2017
8409,1817
4495,1817
4488,2151
4373,2430
4247,2493
3722,1968
3580,1968
3055,2493
2929,2430
2807,2119
2814,1785
2929,1506
3055,1443
3580,1968
3722,1968
4247,1443
4373,1506
4495,1817
8409,1817
8409,1604
8505,1372
4176,1372
3651,1897
3126,1372
3189,1246
3500,1124
3834,1131
4113,1246
4176,1372
8505,1372
8567,1223
8859,931
9240,773
9653,773
10034,931
10326,1223
10484,1604
13333,1604
13333,790
13318,673
671,673
671,3280
" /> 
</g>
<g style="fill:#FFFFFF; fill-opacity:1.0; 
stroke:#FFFFFF; stroke-width:100; stroke-opacity:1; 
stroke-linecap:round; stroke-linejoin:round;">
</g>
<g style="fill:#FFFFFF; fill-opacity:1.0; 
stroke:#FFFFFF; stroke-width:0; stroke-opacity:1; 
stroke-linecap:round; stroke-linejoin:round;">
<circle cx="3651.5" cy="1968.5" r="236.22" /> 
</g>
<g style="fill:#FFFFFF; fill-opacity:1.0; 
stroke:#FFFFFF; stroke-width:39.3701; stroke-opacity:1; 
stroke-linecap:round; stroke-linejoin:round;">
</g>
<g style="fill:#FFFFFF; fill-opacity:1.0; 
stroke:#FFFFFF; stroke-width:0; stroke-opacity:1; 
stroke-linecap:round; stroke-linejoin:round;">
<circle cx="3651.5" cy="5968.5" r="236.22" /> 
</g>
<g style="fill:#FFFFFF; fill-opacity:1.0; 
stroke:#FFFFFF; stroke-width:39.3701; stroke-opacity:1; 
stroke-linecap:round; stroke-linejoin:round;">
</g>
<g style="fill:#FFFFFF; fill-opacity:1.0; 
stroke:#FFFFFF; stroke-width:0; stroke-opacity:1; 
stroke-linecap:round; stroke-linejoin:round;">
<circle cx="3651.5" cy="9968.5" r="236.22" /> 
</g>
<g style="fill:#FFFFFF; fill-opacity:1.0; 
stroke:#FFFFFF; stroke-width:39.3701; stroke-opacity:1; 
stroke-linecap:round; stroke-linejoin:round;">
</g>
<g style="fill:#FFFFFF; fill-opacity:1.0; 
stroke:#FFFFFF; stroke-width:0; stroke-opacity:1; 
stroke-linecap:round; stroke-linejoin:round;">
<circle cx="21651.5" cy="9968.5" r="236.22" /> 
</g>
<g style="fill:#FFFFFF; fill-opacity:1.0; 
stroke:#FFFFFF; stroke-width:39.3701; stroke-opacity:1; 
stroke-linecap:round; stroke-linejoin:round;">
</g>
<g style="fill:#FFFFFF; fill-opacity:1.0; 
stroke:#FFFFFF; stroke-width:0; stroke-opacity:1; 
stroke-linecap:round; stroke-linejoin:round;">
<circle cx="21651.5" cy="1968.5" r="236.22" /> 
</g>
<g style="fill:#FFFFFF; fill-opacity:1.0; 
stroke:#FFFFFF; stroke-width:39.3701; stroke-opacity:1; 
stroke-linecap:round; stroke-linejoin:round;">
</g>
<g style="fill:#FFFFFF; fill-opacity:1.0; 
stroke:#FFFFFF; stroke-width:0; stroke-opacity:1; 
stroke-linecap:round; stroke-linejoin:round;">
<circle cx="21100.3" cy="13740.2" r="344.488" /> 
</g>
<g style="fill:#FFFFFF; fill-opacity:1.0; 
stroke:#FFFFFF; stroke-width:39.3701; stroke-opacity:1; 
stroke-linecap:round; stroke-linejoin:round;">
</g>
<g style="fill:#FFFFFF; fill-opacity:1.0; 
stroke:#FFFFFF; stroke-width:0; stroke-opacity:1; 
stroke-linecap:round; stroke-linejoin:round;">
<circle cx="21100.3" cy="4842.52" r="344.488" /> 
</g>
<g style="fill:#FFFFFF; fill-opacity:1.0; 
stroke:#FFFFFF; stroke-width:39.3701; stroke-opacity:1; 
stroke-linecap:round; stroke-linejoin:round;">
</g>
<g style="fill:#FFFFFF; fill-opacity:1.0; 
stroke:#FFFFFF; stroke-width:0; stroke-opacity:1; 
stroke-linecap:round; stroke-linejoin:round;">
<circle cx="9446.77" cy="1811.02" r="344.488" /> 
</g>
<g style="fill:#FFFFFF; fill-opacity:1.0; 
stroke:#FFFFFF; stroke-width:39.3701; stroke-opacity:1; 
stroke-linecap:round; stroke-linejoin:round;">
</g>
<g style="fill:#FFFFFF; fill-opacity:1.0; 
stroke:#FFFFFF; stroke-width:0; stroke-opacity:1; 
stroke-linecap:round; stroke-linejoin:round;">
<circle cx="9446.77" cy="4803.15" r="344.488" /> 
</g>
<g style="fill:#FFFFFF; fill-opacity:1.0; 
stroke:#FFFFFF; stroke-width:39.3701; stroke-opacity:1; 
stroke-linecap:round; stroke-linejoin:round;">
</g>
<g style="fill:#FFFFFF; fill-opacity:1.0; 
stroke:#FFFFFF; stroke-width:0; stroke-opacity:1; 
stroke-linecap:round; stroke-linejoin:round;">
<circle cx="9446.77" cy="7755.91" r="344.488" /> 
</g>
<g style="fill:#FFFFFF; fill-opacity:1.0; 
stroke:#FFFFFF; stroke-width:39.3701; stroke-opacity:1; 
stroke-linecap:round; stroke-linejoin:round;">
</g>
<g style="fill:#FFFFFF; fill-opacity:1.0; 
stroke:#FFFFFF; stroke-width:0; stroke-opacity:1; 
stroke-linecap:round; stroke-linejoin:round;">
<circle cx="9446.77" cy="10787.4" r="344.488" /> 
</g>
<g style="fill:#FFFFFF; fill-opacity:1.0; 
stroke:#FFFFFF; stroke-width:39.3701; stroke-opacity:1; 
stroke-linecap:round; stroke-linejoin:round;">
</g>
<g style="fill:#FFFFFF; fill-opacity:1.0; 
stroke:#FFFFFF; stroke-width:0; stroke-opacity:1; 
stroke-linecap:round; stroke-linejoin:round;">
<circle cx="9446.77" cy="13779.5" r="344.488" /> 
</g>
<g style="fill:#FFFFFF; fill-opacity:1.0; 
stroke:#FFFFFF; stroke-width:39.3701; stroke-opacity:1; 
stroke-linecap:round; stroke-linejoin:round;">
</g>
<g style="fill:#FFFFFF; fill-opacity:1.0; 
stroke:#FFFFFF; stroke-width:0; stroke-opacity:1; 
stroke-linecap:round; stroke-linejoin:round;">
<circle cx="3934.96" cy="15354.3" r="196.85" /> 
</g>
<g style="fill:#FFFFFF; fill-opacity:1.0; 
stroke:#FFFFFF; stroke-width:39.3701; stroke-opacity:1; 
stroke-linecap:round; stroke-linejoin:round;">
</g>
<g style="fill:#FFFFFF; fill-opacity:1.0; 
stroke:#FFFFFF; stroke-width:0; stroke-opacity:1; 
stroke-linecap:round; stroke-linejoin:round;">
<circle cx="4934.96" cy="15354.3" r="196.85" /> 
</g>
<g style="fill:#FFFFFF; fill-opacity:1.0; 
stroke:#FFFFFF; stroke-width:39.3701; stroke-opacity:1; 
stroke-linecap:round; stroke-linejoin:round;">
</g>
<g style="fill:#FFFFFF; fill-opacity:1.0; 
stroke:#FFFFFF; stroke-width:0; stroke-opacity:1; 
stroke-linecap:round; stroke-linejoin:round;">
<circle cx="5934.96" cy="15354.3" r="196.85" /> 
</g>
<g style="fill:#FFFFFF; fill-opacity:1.0; 
stroke:#FFFFFF; stroke-width:39.3701; stroke-opacity:1; 
stroke-linecap:round; stroke-linejoin:round;">
</g>
<g style="fill:#FFFFFF; fill-opacity:1.0; 
stroke:#FFFFFF; stroke-width:0; stroke-opacity:1; 
stroke-linecap:round; stroke-linejoin:round;">
<circle cx="2675.12" cy="13779.5" r="206.693" /> 
</g>
<g style="fill:#FFFFFF; fill-opacity:1.0; 
stroke:#FFFFFF; stroke-width:39.3701; stroke-opacity:1; 
stroke-linecap:round; stroke-linejoin:round;">
</g>
<g style="fill:#FFFFFF; fill-opacity:1.0; 
stroke:#FFFFFF; stroke-width:0; stroke-opacity:1; 
stroke-linecap:round; stroke-linejoin:round;">
<circle cx="1651.5" cy="12775.6" r="206.693" /> 
</g>
<g style="fill:#FFFFFF; fill-opacity:1.0; 
stroke:#FFFFFF; stroke-width:39.3701; stroke-opacity:1; 
stroke-linecap:round; stroke-linejoin:round;">
</g>
<g style="fill:#FFFFFF; fill-opacity:1.0; 
stroke:#FFFFFF; stroke-width:0; stroke-opacity:1; 
stroke-linecap:round; stroke-linejoin:round;">
<circle cx="2675.12" cy="11771.7" r="206.693" /> 
</g>
<g style="fill:#FFFFFF; fill-opacity:1.0; 
stroke:#FFFFFF; stroke-width:39.3701; stroke-opacity:1; 
stroke-linecap:round; stroke-linejoin:round;">
</g>
<g style="fill:#000000; fill-opacity:1.0; 
stroke:#000000; stroke-width:39.3701; stroke-opacity:1; 
stroke-linecap:round; stroke-linejoin:round;">
</g>
<g style="fill:#000000; fill-opacity:1.0; 
stroke:#000000; stroke-width:59.0551; stroke-opacity:1; 
stroke-linecap:round; stroke-linejoin:round;">
</g>
<g style="fill:#000000; fill-opacity:0.0; 
stroke:#000000; stroke-width:59.0551; stroke-opacity:1; 
stroke-linecap:round; stroke-linejoin:round;">
<path d="M23226 8267
L23226 18503
" />
<path d="M23226 6692
L23226 393
" />
<path d="M19289.3 6692.91 A787.402 787.402 0.0 0 0 18501.9 7480.31 " />
<path d="M18501.9 7480.31 A787.402 787.402 0.0 0 0 19289.3 8267.72 " />
<path d="M23226 8267
L19289 8267
" />
<path d="M23226 6692
L19289 6692
" />
<path d="M391 393
L391 18503
" />
<path d="M23226 393
L391 393
" />
<path d="M23226 18503
L391 18503
" />
</g> 
</svg>
